<svg width="100" height="100" viewBox="0 0 100 100" fill="none" xmlns="http://www.w3.org/2000/svg">
<path d="M31.25 83.0835C31.25 79.7698 33.9363 77.0835 37.25 77.0835H62.75C66.0637 77.0835 68.75 79.7698 68.75 83.0835V89.5835H31.25V83.0835Z" fill="url(#paint0_linear)"/>
<path fill-rule="evenodd" clip-rule="evenodd" d="M50.1387 63.4305C48.4253 63.4305 46.7472 63.2723 45.1183 62.9697C45.8994 63.1162 46.6938 63.2286 47.4938 63.3041V75.8913H52.7866V63.3077C53.6821 63.2199 54.5637 63.0899 55.4312 62.9213V75.8913H56.3724C63.516 75.8913 69.6939 81.0155 71.039 88.0152L71.6431 91.1621H28.6266L29.2307 88.0152C30.5758 81.012 36.7536 75.8913 43.8973 75.8913H43.9008H44.8492V62.9184C39.5567 61.8803 34.7949 59.3163 31.0448 55.7074C25.1486 55.5456 19.3929 54.0458 15.1858 49.621C11.4665 45.7049 9.80876 40.3805 8.9518 35.1615C7.92977 28.9205 7.89465 24.9044 7.89465 18.5861V15.9414H22.5648V18.5861H10.5428C10.5428 38.6503 11.6631 51.0462 28.4884 52.8871C24.7823 48.1908 22.565 42.2715 22.565 35.8568V7.89502H77.7124V15.9414H92.3542V18.5861C92.3542 24.9044 92.3191 28.9205 91.2971 35.1615C90.4437 40.3805 88.7859 45.7049 85.0631 49.621C80.8639 54.0413 75.1205 55.5414 69.2326 55.7073C64.2694 60.4841 57.5331 63.4305 50.1387 63.4305ZM77.7124 35.8568V18.5861H89.7096C89.7096 38.642 88.5895 51.0305 71.7919 52.8832C75.4964 48.1871 77.7124 42.2689 77.7124 35.8568ZM50.1387 60.7859C63.85 60.7859 75.0642 49.5681 75.0642 35.8603V10.5432H25.2096V35.8603C25.2096 49.5717 36.4273 60.7859 50.1352 60.7859H50.1387ZM56.3724 78.536H43.9008H43.8973C37.9267 78.536 32.9184 82.8489 31.8296 88.5139H68.44C67.3513 82.8489 62.343 78.536 56.3724 78.536Z" fill="#7ECA1D"/>
<path fill-rule="evenodd" clip-rule="evenodd" d="M50.6972 19.6225L54.4903 27.0436C54.5816 27.2228 54.7361 27.3387 54.9328 27.3773L62.8562 28.891C63.0845 28.9367 63.2601 29.0877 63.3338 29.3125C63.4076 29.5337 63.3584 29.762 63.2039 29.9376L57.602 36.1049C57.4721 36.2454 57.4194 36.421 57.444 36.6107L58.5292 45.0327C58.5608 45.2716 58.4625 45.4893 58.2693 45.6298C58.0727 45.7668 57.8338 45.7843 57.6231 45.6755L50.4268 42.0264C50.2406 41.9315 50.0439 41.9315 49.8578 42.0264L42.6614 45.679C42.4472 45.7879 42.2084 45.7703 42.0152 45.6298C41.8185 45.4928 41.7237 45.2716 41.7553 45.0327L42.8406 36.6107C42.8651 36.421 42.809 36.2489 42.6825 36.1049L37.0807 29.9376C36.9226 29.7655 36.8735 29.5372 36.9507 29.3125C37.0245 29.0912 37.2001 28.9367 37.4284 28.891L45.3517 27.3773C45.5484 27.3387 45.7029 27.2228 45.7943 27.0436L49.5874 19.6225C49.6962 19.4048 49.907 19.2783 50.1493 19.2783C50.3916 19.2783 50.5989 19.4048 50.7112 19.6225H50.6972ZM50.1352 24.3428L48.1404 28.2483C47.6768 29.1544 46.8374 29.7866 45.8364 29.9763L41.4427 30.8157L44.6282 34.3243C45.2745 35.0372 45.5765 35.9925 45.4536 36.9478L44.8565 41.5909L48.6531 39.6627C49.5909 39.1886 50.6796 39.1886 51.6174 39.6627L55.414 41.5873L54.8169 36.9443C54.694 35.9925 54.996 35.0337 55.6423 34.3208L58.8278 30.8121L54.4341 29.9727C53.4331 29.7831 52.5937 29.1509 52.1301 28.2448L50.1352 24.3393V24.3428Z" fill="#7ECA1D"/>
<path fill-rule="evenodd" clip-rule="evenodd" d="M50.1387 24.3399L48.1438 28.2454C47.6802 29.1516 46.8408 29.7837 45.8398 29.9734L41.4462 30.8128L44.6317 34.3214C45.2779 35.0344 45.5799 35.9897 45.457 36.945L44.86 41.588L48.6566 39.6598C49.5943 39.1857 50.6831 39.1857 51.6208 39.6598L55.4174 41.5845L54.8203 36.9415C54.6974 35.9897 54.9995 35.0309 55.6457 34.3179L58.8312 30.8093L54.4375 29.9699C53.4366 29.7802 52.5972 29.148 52.1336 28.2419L50.1387 24.3364V24.3399Z" fill="url(#paint1_linear)"/>
<defs>
<linearGradient id="paint0_linear" x1="31.25" y1="77.0835" x2="66.7337" y2="93.8506" gradientUnits="userSpaceOnUse">
<stop stop-color="#E3EEFF"/>
<stop offset="0.526042" stop-color="#E4F6E4"/>
<stop offset="1" stop-color="#FFEEE4"/>
</linearGradient>
<linearGradient id="paint1_linear" x1="41.4462" y1="24.3364" x2="61.075" y2="27.4521" gradientUnits="userSpaceOnUse">
<stop stop-color="#E3EEFF"/>
<stop offset="0.526042" stop-color="#E4F6E4"/>
<stop offset="1" stop-color="#FFEEE4"/>
</linearGradient>
</defs>
</svg>
