<svg width="80" height="80" viewBox="0 0 80 80" fill="none" xmlns="http://www.w3.org/2000/svg">
<path d="M22.3699 78.8351H57.6294C59.1873 78.8351 60.4502 77.5719 60.4502 76.0138V74.1329C60.4502 72.5747 59.1873 71.3115 57.6294 71.3115H22.3699C20.812 71.3115 19.5491 72.5747 19.5491 74.1329V76.0138C19.5491 77.5721 20.8119 78.8351 22.3699 78.8351Z" fill="url(#paint0_linear)"/>
<path fill-rule="evenodd" clip-rule="evenodd" d="M32.3456 12.1138H5.87657C3.2799 12.1138 1.17529 14.2204 1.17529 16.816V52.1895L5.03002 53.3647H72.0081L78.8246 52.1895V16.816C78.8246 14.2204 76.72 12.1138 74.1234 12.1138H47.654L65.4132 41.4985C66.1536 42.7236 65.2717 44.2877 63.8403 44.2877H16.1592C14.728 44.2877 13.846 42.7236 14.5863 41.4985L32.3456 12.1138Z" fill="url(#paint1_linear)"/>
<path fill-rule="evenodd" clip-rule="evenodd" d="M2.35064 38.4042V51.003H77.6494V16.8055C77.6494 14.861 76.0677 13.2789 74.1234 13.2789H58.4239V10.9277H74.1234C77.3638 10.9277 80 13.5644 80 16.8055V57.665C80 60.9061 77.3638 63.5428 74.1234 63.5428H48.7365V70.1255H57.6298C59.8333 70.1255 61.6259 71.9184 61.6259 74.1224V76.0033C61.6259 78.2072 59.8333 80.0002 57.6298 80.0002H22.3702C20.1667 80.0002 18.3741 78.2072 18.3741 76.0033V74.1224C18.3741 71.9184 20.1667 70.1255 22.3702 70.1255H31.2635V63.5428H5.87659C2.63616 63.5428 0 60.9061 0 57.665V38.4042H2.35064ZM20.7248 76.0033V74.1224C20.7248 73.2148 21.4629 72.4766 22.3702 72.4766H57.6298C58.5371 72.4766 59.2752 73.2148 59.2752 74.1224V76.0033C59.2752 76.9108 58.5371 77.6491 57.6298 77.6491H22.3702C21.4629 77.6491 20.7248 76.9108 20.7248 76.0033ZM46.3859 70.1255H33.6141V63.5428H46.3859V70.1255ZM74.1234 61.1917H5.87659C3.9323 61.1917 2.35064 59.6095 2.35064 57.665V53.3541H77.6494V57.665C77.6494 59.6095 76.0677 61.1917 74.1234 61.1917Z" fill="#7ECA1D"/>
<path d="M5.87677 10.9276H31.6965L37.4216 1.45472C37.9721 0.543737 38.9361 0 40.0002 0C41.0643 0 42.0283 0.543894 42.5788 1.45472L48.3039 10.9276H62.9393C63.5884 10.9276 64.1146 11.4537 64.1146 12.1031C64.1146 12.7525 63.5884 13.2787 62.9393 13.2787H49.7249L66.4193 40.9017C66.9894 41.845 67.0065 42.9814 66.4651 43.9414C65.9237 44.9015 64.9427 45.4747 63.8405 45.4747H16.1594C15.0574 45.4747 14.0763 44.9015 13.5348 43.9414C12.9934 42.9814 13.0106 41.845 13.5806 40.9017L30.2756 13.2787H5.87677C3.93248 13.2787 2.35081 14.8608 2.35081 16.8054V42.9201C2.35081 43.5695 1.82458 44.0957 1.1755 44.0957C0.526405 44.0957 0.000175476 43.5695 0.000175476 42.9201V16.8054C0.000175476 13.5643 2.63634 10.9276 5.87677 10.9276ZM15.5826 42.7862C15.6398 42.8877 15.8104 43.1234 16.1597 43.1234H63.8407C64.19 43.1234 64.3605 42.8877 64.4178 42.7862C64.475 42.685 64.5883 42.417 64.4078 42.1179L40.5672 2.67104C40.3928 2.38232 40.1126 2.35113 40.0002 2.35113C39.8878 2.35113 39.6076 2.38232 39.4332 2.67104L15.5927 42.1181C15.4121 42.417 15.5254 42.685 15.5826 42.7862Z" fill="#7ECA1D"/>
<path d="M43.3694 13.7235V28.7707C43.3694 30.6288 41.8579 32.1406 40.0001 32.1406C38.1423 32.1406 36.6309 30.6288 36.6309 28.7707V13.7235C36.6309 11.8653 38.1423 10.3535 40.0001 10.3535C41.8579 10.3535 43.3694 11.8653 43.3694 13.7235ZM38.9815 13.7235V28.7707C38.9815 29.3324 39.4385 29.7895 40.0001 29.7895C40.5618 29.7895 41.0187 29.3324 41.0187 28.7707V13.7235C41.0187 13.1617 40.5618 12.7046 40.0001 12.7046C39.4385 12.7046 38.9815 13.1617 38.9815 13.7235Z" fill="#7ECA1D"/>
<path d="M40.0004 34.3354C41.8151 34.3354 43.2913 35.8121 43.2913 37.627C43.2913 39.4419 41.8151 40.9186 40.0004 40.9186C38.1857 40.9186 36.7095 39.4419 36.7095 37.627C36.7095 35.8121 38.1857 34.3354 40.0004 34.3354ZM40.0004 38.5675C40.5189 38.5675 40.9406 38.1457 40.9406 37.627C40.9406 37.1084 40.5189 36.6866 40.0004 36.6866C39.4818 36.6866 39.0601 37.1084 39.0601 37.627C39.0601 38.1457 39.4818 38.5675 40.0004 38.5675Z" fill="#7ECA1D"/>
<defs>
<linearGradient id="paint0_linear" x1="60.4502" y1="71.3115" x2="33.135" y2="94.7011" gradientUnits="userSpaceOnUse">
<stop stop-color="#E3EEFF"/>
<stop offset="0.526042" stop-color="#E4F6E4"/>
<stop offset="1" stop-color="#FFEEE4"/>
</linearGradient>
<linearGradient id="paint1_linear" x1="1.17529" y1="12.1138" x2="83.7926" y2="36.609" gradientUnits="userSpaceOnUse">
<stop stop-color="#E3EEFF"/>
<stop offset="0.526042" stop-color="#E4F6E4"/>
<stop offset="1" stop-color="#FFEEE4"/>
</linearGradient>
</defs>
</svg>
