<svg width="100" height="100" viewBox="0 0 100 100" fill="none" xmlns="http://www.w3.org/2000/svg">
<path d="M50.109 36.2623L41.3791 39.3666L41.6341 30.1051L35.9844 22.7617L44.8711 20.1424L50.109 12.5L55.3463 20.1424L64.2336 22.7617L58.5839 30.1051L58.8383 39.3666L50.109 36.2623Z" fill="url(#paint0_linear)"/>
<path d="M58.8385 40.999C58.6549 40.999 58.4701 40.9678 58.2916 40.9047L50.1093 37.9947L41.9263 40.9047C41.4195 41.0851 40.856 41.0035 40.4206 40.6873C39.9853 40.3705 39.7335 39.8599 39.7481 39.3219L39.9872 30.6405L34.6912 23.7573C34.3629 23.3315 34.2661 22.7699 34.4324 22.258C34.5988 21.7461 35.0068 21.3496 35.5231 21.1973L43.8533 18.7418L48.763 11.5775C49.0677 11.1338 49.5712 10.8687 50.1093 10.8687C50.6473 10.8687 51.1509 11.1338 51.4556 11.5775L56.3652 18.7418L64.6954 21.1973C65.2117 21.3496 65.6197 21.7461 65.7861 22.258C65.9525 22.7699 65.8556 23.3308 65.5273 23.7573L60.2313 30.6411L60.4704 39.3219C60.485 39.8599 60.2332 40.3712 59.7979 40.6873C59.5155 40.8926 59.1783 40.999 58.8385 40.999ZM38.7301 23.6546L42.9277 29.1106C43.1566 29.4076 43.2758 29.7748 43.2656 30.1503L43.0763 37.0316L49.5623 34.7253C49.9161 34.5997 50.3024 34.5997 50.6562 34.7253L57.1416 37.0316L56.9529 30.1503C56.9421 29.7748 57.0619 29.4076 57.2908 29.1106L61.4884 23.6546L54.8857 21.7079C54.5255 21.6021 54.2132 21.3751 54.0009 21.0653L50.1093 15.3869L46.2176 21.0653C46.0053 21.3751 45.693 21.6021 45.3328 21.7079L38.7301 23.6546Z" fill="#7ECA1D"/>
<path d="M77.8904 22.9218L73.8961 24.3421L74.0121 20.1043L71.4272 16.7443L75.4935 15.5452L77.8904 12.0488L80.2865 15.5452L84.3528 16.7443L81.768 20.1043L81.8846 24.3421L77.8904 22.9218Z" fill="url(#paint1_linear)"/>
<path d="M73.8963 25.9735C73.5565 25.9735 73.2193 25.867 72.9369 25.6618C72.5016 25.3456 72.2498 24.835 72.2651 24.297L72.3651 20.6393L70.1341 17.7389C69.8058 17.3124 69.7095 16.7515 69.8753 16.2396C70.0416 15.7277 70.4496 15.3313 70.9659 15.1789L74.4757 14.1443L76.5443 11.126C76.849 10.6817 77.3526 10.4165 77.8906 10.4165C78.4286 10.4165 78.9322 10.6817 79.2369 11.126L81.3054 14.1443L84.8146 15.1789C85.3309 15.3313 85.7389 15.7277 85.9059 16.2396C86.0716 16.7515 85.9754 17.3124 85.6471 17.7389L83.4154 20.6393L83.5161 24.297C83.5314 24.835 83.2796 25.3456 82.8442 25.6618C82.4088 25.978 81.8453 26.0589 81.3385 25.8792L77.8906 24.6533L74.4432 25.8792C74.2648 25.9423 74.0799 25.9735 73.8963 25.9735ZM77.8906 21.2895C78.0754 21.2895 78.2603 21.3207 78.4369 21.3838L80.1879 22.006L80.1369 20.1485C80.1261 19.773 80.246 19.4058 80.4748 19.1088L81.6075 17.6356L79.8252 17.1104C79.4657 17.0046 79.1527 16.7776 78.9405 16.4678L77.8899 14.9348L76.8394 16.4678C76.6271 16.7776 76.3148 17.0039 75.9546 17.1104L74.1723 17.6356L75.3057 19.1088C75.5339 19.4058 75.6538 19.773 75.6429 20.1485L75.5919 22.006L77.343 21.3838C77.5209 21.3207 77.7051 21.2895 77.8906 21.2895Z" fill="#7ECA1D"/>
<path d="M22.3279 22.9218L18.3336 24.3421L18.4502 20.1043L15.8647 16.7443L19.931 15.5452L22.3279 12.0488L24.7247 15.5452L28.791 16.7443L26.2061 20.1043L26.3221 24.3421L22.3279 22.9218Z" fill="url(#paint2_linear)"/>
<path d="M26.3221 25.9735C26.1386 25.9735 25.9537 25.9423 25.7752 25.8792L22.3279 24.6533L18.8805 25.8792C18.3731 26.0595 17.8103 25.978 17.3742 25.6618C16.9389 25.3456 16.6877 24.835 16.7024 24.297L16.8031 20.6393L14.5714 17.7389C14.2431 17.3124 14.1468 16.7515 14.3132 16.2396C14.4796 15.7271 14.8875 15.3306 15.4039 15.1783L18.913 14.1437L20.9816 11.1253C21.2863 10.6817 21.7899 10.4165 22.3279 10.4165C22.8659 10.4165 23.3695 10.6817 23.6742 11.1253L25.7427 14.1437L29.2519 15.1789C29.7682 15.3306 30.1762 15.7277 30.3425 16.2396C30.5089 16.7515 30.412 17.3124 30.0844 17.7389L27.8527 20.6387L27.9534 24.2964C27.968 24.8344 27.7169 25.3456 27.2815 25.6618C26.9991 25.867 26.6625 25.9735 26.3221 25.9735ZM22.3279 21.2895C22.5127 21.2895 22.6982 21.3207 22.8748 21.3838L24.6259 22.006L24.5749 20.1485C24.564 19.773 24.6839 19.4058 24.9121 19.1088L26.0455 17.6356L24.2632 17.1104C23.903 17.0046 23.5907 16.7776 23.3784 16.4678L22.3279 14.9348L21.2774 16.4678C21.0651 16.7776 20.7527 17.0039 20.3926 17.1104L18.6103 17.6356L19.7436 19.1088C19.9725 19.4058 20.0917 19.773 20.0815 20.1485L20.0305 22.006L21.7816 21.3838C21.9582 21.3207 22.143 21.2895 22.3279 21.2895Z" fill="#7ECA1D"/>
<path d="M50.1092 72.5101C49.2078 72.5101 48.4773 71.7796 48.4773 70.8783V43.9517C48.4773 43.051 49.2078 42.3198 50.1092 42.3198C51.0105 42.3198 51.741 43.051 51.741 43.9517V70.8783C51.741 71.779 51.0105 72.5101 50.1092 72.5101Z" fill="#7ECA1D"/>
<path d="M74.6272 53.7855L67.9333 50.604L73.316 45.5088L74.2741 38.1597L80.7824 41.7045L88.0685 40.3442L86.7082 47.6303L90.2531 54.1386L82.9032 55.0967L77.8087 60.4794L74.6272 53.7855Z" fill="url(#paint3_linear)"/>
<path d="M77.8095 62.111C77.7241 62.111 77.6393 62.1046 77.5539 62.0906C77.0222 62.0064 76.5665 61.666 76.3351 61.1796L73.4022 55.0098L67.2329 52.0768C66.7465 51.8461 66.4055 51.3903 66.3213 50.8587C66.2372 50.327 66.4208 49.7878 66.8115 49.418L71.7728 44.7226L72.6557 37.9484C72.7252 37.4148 73.0535 36.9495 73.5328 36.7054C74.0128 36.4606 74.5814 36.4689 75.0544 36.7264L81.0535 39.9933L87.7684 38.7401C88.2975 38.6407 88.8412 38.8096 89.2218 39.1901C89.6023 39.5707 89.7706 40.1144 89.6725 40.6435L88.4186 47.3584L91.6862 53.3575C91.9431 53.8305 91.9513 54.3997 91.7066 54.8791C91.4624 55.3584 90.9971 55.6867 90.4635 55.7562L83.69 56.6391L78.9939 61.6004C78.6834 61.9293 78.2538 62.111 77.8095 62.111ZM70.7841 50.1517L75.3279 52.3114C75.6664 52.4727 75.9398 52.7455 76.1011 53.0847L78.2608 57.6278L81.7183 53.9745C81.9765 53.7017 82.3207 53.5264 82.693 53.478L87.6811 52.8278L85.2747 48.4102C85.0956 48.0807 85.035 47.6995 85.1038 47.3304L86.0269 42.385L81.0822 43.3087C80.7131 43.3769 80.3319 43.317 80.0023 43.1372L75.5841 40.7315L74.9346 45.7195C74.8861 46.0918 74.7108 46.436 74.438 46.6936L70.7841 50.1517Z" fill="#7ECA1D"/>
<path d="M52.9892 89.2961C52.9325 89.2961 52.8764 89.2935 52.819 89.2878C51.9228 89.1947 51.2713 88.3928 51.3637 87.4965C52.4334 77.1494 57.415 69.289 61.4061 64.5171C65.7159 59.3626 69.7918 56.6235 69.9626 56.5094C70.7129 56.0103 71.7258 56.213 72.2256 56.9639C72.7247 57.7136 72.5213 58.7271 71.7711 59.2262C71.6162 59.3295 67.9202 61.8143 63.9094 66.6105C60.2109 71.0337 55.5945 78.3058 54.6103 87.8325C54.5236 88.6714 53.8147 89.2961 52.9892 89.2961Z" fill="#7ECA1D"/>
<path d="M25.5909 53.7855L32.2848 50.604L26.9022 45.5088L25.9441 38.1597L19.4357 41.7045L12.1496 40.3442L13.51 47.6303L9.96509 54.1386L17.3143 55.0967L22.4088 60.4794L25.5909 53.7855Z" fill="url(#paint4_linear)"/>
<path d="M22.4087 62.1117C21.9644 62.1117 21.5348 61.93 21.2237 61.6017L16.5282 56.6404L9.75404 55.7576C9.2205 55.6881 8.75516 55.3598 8.51102 54.8798C8.26687 54.4004 8.27452 53.8312 8.53205 53.3588L11.799 47.3598L10.5458 40.6443C10.4463 40.1152 10.6152 39.5714 10.9958 39.1909C11.3764 38.8103 11.9201 38.6414 12.4492 38.7408L19.1641 39.9947L25.1631 36.7271C25.6361 36.4696 26.2054 36.4619 26.6847 36.7061C27.1641 36.9502 27.4924 37.4156 27.5619 37.9491L28.4447 44.7233L33.4067 49.4188C33.7974 49.7891 33.9804 50.3278 33.8962 50.8594C33.8121 51.391 33.471 51.8468 32.9853 52.0782L26.8154 55.0111L23.8831 61.1804C23.6517 61.6661 23.196 62.0071 22.6643 62.0913C22.5789 62.1053 22.4935 62.1117 22.4087 62.1117ZM12.5372 52.8285L17.5252 53.4787C17.8975 53.5271 18.2417 53.7024 18.4992 53.9753L21.9574 57.6285L24.1171 53.0854C24.2784 52.7463 24.5512 52.4734 24.8903 52.3122L29.4334 50.1525L25.7802 46.6943C25.5074 46.4368 25.3321 46.0925 25.2836 45.7203L24.6334 40.7322L20.2159 43.1386C19.8863 43.3177 19.5045 43.3783 19.136 43.3094L14.1907 42.3864L15.1137 47.3311C15.1832 47.7002 15.1227 48.082 14.9429 48.411L12.5372 52.8285Z" fill="#7ECA1D"/>
<path d="M47.2292 89.2959C46.4031 89.2959 45.6949 88.6712 45.6082 87.8317C44.6233 78.305 40.0076 71.0336 36.3091 66.6103C32.3001 61.8166 28.6023 59.3293 28.4467 59.226C27.6965 58.7263 27.4931 57.7127 27.9929 56.9631C28.4926 56.2128 29.5055 56.0095 30.2558 56.5092C30.4273 56.6233 34.5051 59.3656 38.8123 64.5169C42.8034 69.2888 47.7851 77.1493 48.8547 87.4964C48.9472 88.3926 48.2957 89.1945 47.3988 89.287C47.3421 89.2933 47.2853 89.2959 47.2292 89.2959Z" fill="#7ECA1D"/>
<path d="M62.9289 88.9916C62.7013 88.9916 62.4699 88.9438 62.2494 88.8431C61.4302 88.467 61.0707 87.4987 61.4468 86.679C63.938 81.2473 68.0903 77.8955 71.1348 76.0399C74.3609 74.0734 76.9821 73.3435 77.2702 73.2664C78.1416 73.0343 79.0353 73.5519 79.2674 74.4227C79.4994 75.2935 78.9818 76.1878 78.111 76.4198C78.0875 76.4262 75.7155 77.07 72.8329 78.8269C70.1773 80.4453 66.5604 83.3579 64.4129 88.0399C64.1388 88.6385 63.5472 88.9916 62.9289 88.9916Z" fill="#7ECA1D"/>
<path d="M38.8363 88.9916C38.218 88.9916 37.6265 88.6385 37.3517 88.0399C35.2048 83.3579 31.5879 80.4453 28.9316 78.8269C26.0497 77.07 23.6771 76.4262 23.6535 76.4198C22.7828 76.1872 22.2652 75.2935 22.4978 74.4227C22.7299 73.5519 23.6242 73.0343 24.495 73.2664C24.7837 73.3435 27.4056 74.0747 30.6304 76.0399C33.6749 77.8955 37.8273 81.2473 40.3184 86.679C40.6945 87.4987 40.335 88.467 39.5152 88.8431C39.2947 88.9438 39.0639 88.9916 38.8363 88.9916Z" fill="#7ECA1D"/>
<path d="M84.3531 68.2642C83.4523 68.2642 82.7212 67.5337 82.7212 66.6324V65.274C82.7212 64.3726 83.4523 63.6421 84.3531 63.6421C85.2544 63.6421 85.9849 64.3726 85.9849 65.274V66.6324C85.9849 67.5337 85.2544 68.2642 84.3531 68.2642Z" fill="#7ECA1D"/>
<path d="M84.3531 75.6331C83.4523 75.6331 82.7212 74.9019 82.7212 74.0012V72.6421C82.7212 71.7414 83.4523 71.0103 84.3531 71.0103C85.2544 71.0103 85.9849 71.7414 85.9849 72.6421V74.0012C85.9849 74.9019 85.2544 75.6331 84.3531 75.6331Z" fill="#7ECA1D"/>
<path d="M88.7164 71.2691H87.3579C86.4572 71.2691 85.7261 70.538 85.7261 69.6372C85.7261 68.7359 86.4572 68.0054 87.3579 68.0054H88.7164C89.6177 68.0054 90.3482 68.7359 90.3482 69.6372C90.3482 70.538 89.6177 71.2691 88.7164 71.2691Z" fill="#7ECA1D"/>
<path d="M81.3487 71.2691H79.9903C79.0889 71.2691 78.3584 70.538 78.3584 69.6372C78.3584 68.7359 79.0889 68.0054 79.9903 68.0054H81.3487C82.25 68.0054 82.9806 68.7359 82.9806 69.6372C82.9806 70.538 82.25 71.2691 81.3487 71.2691Z" fill="#7ECA1D"/>
<path d="M15.8645 68.2642C14.9632 68.2642 14.2327 67.5337 14.2327 66.6324V65.274C14.2327 64.3726 14.9632 63.6421 15.8645 63.6421C16.7659 63.6421 17.4964 64.3726 17.4964 65.274V66.6324C17.4964 67.5337 16.7659 68.2642 15.8645 68.2642Z" fill="#7ECA1D"/>
<path d="M15.8645 75.6331C14.9632 75.6331 14.2327 74.9019 14.2327 74.0012V72.6421C14.2327 71.7414 14.9632 71.0103 15.8645 71.0103C16.7659 71.0103 17.4964 71.7414 17.4964 72.6421V74.0012C17.4964 74.9019 16.7659 75.6331 15.8645 75.6331Z" fill="#7ECA1D"/>
<path d="M20.2281 71.2691H18.8697C17.9683 71.2691 17.2378 70.538 17.2378 69.6372C17.2378 68.7359 17.9683 68.0054 18.8697 68.0054H20.2281C21.1294 68.0054 21.8599 68.7359 21.8599 69.6372C21.8599 70.538 21.1294 71.2691 20.2281 71.2691Z" fill="#7ECA1D"/>
<path d="M12.8605 71.2691H11.5015C10.6008 71.2691 9.86963 70.538 9.86963 69.6372C9.86963 68.7359 10.6008 68.0054 11.5015 68.0054H12.8605C13.7619 68.0054 14.4924 68.7359 14.4924 69.6372C14.4924 70.538 13.7619 71.2691 12.8605 71.2691Z" fill="#7ECA1D"/>
<defs>
<linearGradient id="paint0_linear" x1="35.9844" y1="12.5" x2="67.8102" y2="17.7709" gradientUnits="userSpaceOnUse">
<stop stop-color="#E3EEFF"/>
<stop offset="0.526042" stop-color="#E4F6E4"/>
<stop offset="1" stop-color="#FFEEE4"/>
</linearGradient>
<linearGradient id="paint1_linear" x1="71.4272" y1="12.0488" x2="85.9893" y2="14.4605" gradientUnits="userSpaceOnUse">
<stop stop-color="#E3EEFF"/>
<stop offset="0.526042" stop-color="#E4F6E4"/>
<stop offset="1" stop-color="#FFEEE4"/>
</linearGradient>
<linearGradient id="paint2_linear" x1="15.8647" y1="12.0488" x2="30.4275" y2="14.4607" gradientUnits="userSpaceOnUse">
<stop stop-color="#E3EEFF"/>
<stop offset="0.526042" stop-color="#E4F6E4"/>
<stop offset="1" stop-color="#FFEEE4"/>
</linearGradient>
<linearGradient id="paint3_linear" x1="67.9333" y1="38.1597" x2="93.1432" y2="42.1305" gradientUnits="userSpaceOnUse">
<stop stop-color="#E3EEFF"/>
<stop offset="0.526042" stop-color="#E4F6E4"/>
<stop offset="1" stop-color="#FFEEE4"/>
</linearGradient>
<linearGradient id="paint4_linear" x1="9.96509" y1="38.1597" x2="35.1749" y2="42.1305" gradientUnits="userSpaceOnUse">
<stop stop-color="#E3EEFF"/>
<stop offset="0.526042" stop-color="#E4F6E4"/>
<stop offset="1" stop-color="#FFEEE4"/>
</linearGradient>
</defs>
</svg>
