<svg width="80" height="80" viewBox="0 0 80 80" fill="none" xmlns="http://www.w3.org/2000/svg">
<path fill-rule="evenodd" clip-rule="evenodd" d="M48.5854 12.9705C50.2064 11.8616 52.0247 11.1146 54.0404 10.9125C58.6825 10.4568 63.071 13.3887 64.2409 17.9322C65.2135 21.6957 63.6207 25.2337 60.576 27.5125C59.8948 28.0199 59.1618 28.4616 58.3865 28.8421C60.1579 29.6926 61.7131 30.8907 62.8971 32.5399C65.6129 36.3316 65.2699 41.5987 61.9151 44.8876C59.143 47.6081 55.2808 47.9981 51.7851 46.5039C51.0051 46.1703 50.2534 45.7569 49.5392 45.2776C49.6848 47.2369 49.4311 49.1821 48.5948 51.0286C46.6684 55.2761 41.937 57.6113 37.4123 56.3521C33.6675 55.309 31.4028 52.1657 30.9471 48.3881C30.8437 47.547 30.8296 46.6872 30.886 45.8273C29.265 46.9362 27.4467 47.6833 25.431 47.8853C20.7889 48.3411 16.4004 45.4092 15.2305 40.8657C14.2626 37.1022 15.8507 33.5642 18.8953 31.2854C19.5766 30.7779 20.3096 30.3363 21.0849 29.9557C19.3135 29.1053 17.7583 27.9071 16.5743 26.258C13.8585 22.4662 14.2015 17.1992 17.5563 13.9102C20.3284 11.1898 24.1906 10.7998 27.6863 12.2939C28.4663 12.6275 29.2133 13.041 29.9322 13.5202C29.7865 11.5609 30.0403 9.61575 30.8766 7.76922C32.803 3.52175 37.5344 1.18658 42.0591 2.44578C45.8039 3.48886 48.0685 6.63218 48.5243 10.4098C48.6277 11.2508 48.6418 12.1107 48.5854 12.9705ZM44.9064 22.6307L44.9158 22.6401C44.9769 22.6871 45.0333 22.7341 45.0944 22.781L45.1085 22.7904C45.2024 22.8656 45.2917 22.9455 45.3857 23.0254C45.7475 23.3449 46.0858 23.6973 46.3865 24.0778L46.3912 24.0825C46.4663 24.1765 46.5368 24.2705 46.6073 24.3644L46.6214 24.3832C46.6637 24.4396 46.706 24.5007 46.7483 24.5618L46.7577 24.5759C46.8234 24.6745 46.8892 24.7732 46.9503 24.8719L46.9644 24.8907C47.002 24.9518 47.0396 25.0081 47.0725 25.0692L47.0866 25.0927C47.1241 25.1585 47.1617 25.2243 47.1993 25.2901L47.204 25.2948L47.2604 25.3981L47.2745 25.4263C47.3027 25.4827 47.3356 25.5391 47.3638 25.5955L47.3873 25.6377C47.4201 25.7035 47.453 25.7693 47.4812 25.8351V25.8398C47.5282 25.9431 47.5752 26.0512 47.6222 26.1593L47.641 26.2063C47.6645 26.2674 47.688 26.3284 47.7115 26.3895L47.7209 26.413L47.7584 26.5211L47.7725 26.5587C47.7913 26.615 47.8148 26.6761 47.8336 26.7325L47.8524 26.7936C47.8712 26.85 47.89 26.9064 47.9041 26.9627L47.9182 27.0097L47.9511 27.1178V27.1225L47.984 27.2446L48.0075 27.3433L48.0216 27.4044C48.0357 27.4608 48.0498 27.5172 48.0591 27.5688L48.0732 27.6252L48.0967 27.7333L48.1202 27.8555L48.1343 27.9494L48.1484 28.0293C48.1578 28.0763 48.1625 28.128 48.1719 28.175L48.186 28.2595L48.1954 28.3488V28.3582L48.2095 28.4851C48.2424 28.7858 48.2565 29.0912 48.2565 29.3966C48.2565 29.4389 48.2565 29.4764 48.2565 29.5187C48.2518 29.7349 48.2424 29.9463 48.2236 30.1577V30.1671C48.2048 30.3739 48.1766 30.5806 48.1437 30.7873L48.139 30.8061C48.092 31.0927 48.031 31.3747 47.9558 31.6519V31.6566C47.9229 31.774 47.89 31.8962 47.8524 32.0137V32.0184C47.7631 32.2909 47.6645 32.5587 47.5517 32.8171L47.547 32.8265C47.4671 33.0097 47.3779 33.1883 47.2886 33.3668L47.2839 33.3762C47.1899 33.5548 47.0912 33.7286 46.9832 33.8978C46.7671 34.2408 46.5321 34.5697 46.2737 34.8751C45.6112 35.6644 44.8078 36.3316 43.9056 36.8344L43.8493 36.8672L43.7459 36.9236L43.7365 36.9283L43.6801 36.9612L43.5814 37.0129L43.5063 37.0505L43.3935 37.1022L43.3841 37.1069L43.323 37.1351L43.3136 37.1398L43.2056 37.1914H43.2009L43.1398 37.2196L43.1304 37.2243L43.0317 37.2666L42.9236 37.3089L42.8391 37.3418L42.7263 37.3841L42.6417 37.417C42.5994 37.4311 42.5572 37.4452 42.5149 37.4593L42.4538 37.4781C42.4068 37.4921 42.3598 37.5109 42.3128 37.525L42.2612 37.5438C42.2142 37.5579 42.1625 37.572 42.1155 37.5861L42.0685 37.6002C42.0168 37.6143 41.9604 37.6284 41.9088 37.6425L41.8759 37.6519C41.8195 37.666 41.7631 37.6801 41.7067 37.6942L41.6597 37.7036C41.6081 37.7177 41.5517 37.7271 41.5 37.7365L41.4483 37.7459C41.3919 37.7553 41.3355 37.7694 41.2792 37.7788L41.251 37.7835C41.1899 37.7929 41.1335 37.8022 41.0724 37.8116L41.0395 37.8163C40.9785 37.8257 40.9174 37.8351 40.8516 37.8445L40.8328 37.8492C40.767 37.8586 40.7059 37.8633 40.6402 37.8727L40.6167 37.8774C40.5509 37.8821 40.4851 37.8915 40.4193 37.8962H40.4099C40.3395 37.9009 40.269 37.9056 40.1985 37.9103H40.1938C40.0481 37.9197 39.9025 37.9197 39.7568 37.9197C39.6864 37.9197 39.6112 37.9197 39.5407 37.915H39.536H39.5266C39.4561 37.915 39.3904 37.9103 39.3246 37.9056H39.3152C39.2447 37.9009 39.1789 37.8962 39.1084 37.8915H39.099C39.0333 37.8868 38.9628 37.8821 38.897 37.8727H38.8735C38.8077 37.868 38.7467 37.8586 38.6809 37.8492H38.6715H38.6621C38.601 37.8398 38.5399 37.8351 38.4788 37.8257L38.4365 37.821C38.3802 37.8116 38.3191 37.8022 38.2627 37.7929L38.2298 37.7882C38.1781 37.7788 38.1264 37.7694 38.0701 37.76L38.0043 37.7459C37.9573 37.7365 37.9056 37.7271 37.8586 37.713L37.8022 37.6989C37.7553 37.6895 37.7036 37.6754 37.6566 37.6613L37.5908 37.6472L37.4593 37.6096L37.3841 37.5861L37.2666 37.5485L37.182 37.5203L37.0693 37.4827L36.9706 37.4499L36.9612 37.4452L36.9095 37.4264L36.8954 37.4217C36.8484 37.4076 36.8015 37.3888 36.7592 37.37H36.7545L36.7028 37.3512L36.684 37.3465L36.5618 37.2995L36.5477 37.2948L36.4961 37.276L36.4867 37.2713L36.3598 37.2196L36.3457 37.2149L36.294 37.1914C35.9745 37.0505 35.6691 36.8907 35.3731 36.7169L35.2744 36.6558L35.2603 36.6464C35.1993 36.6088 35.1429 36.5712 35.0818 36.5336L35.0536 36.5149C34.9925 36.4726 34.9314 36.435 34.8704 36.3927L34.861 36.388L34.767 36.3222L34.7482 36.3081C34.6918 36.2658 34.6354 36.2282 34.5837 36.186L34.5556 36.1625C34.5039 36.1249 34.4522 36.0826 34.4052 36.045L34.3723 36.0168C34.283 35.9463 34.1985 35.8712 34.1092 35.796L34.0904 35.7772C34.0387 35.7302 33.987 35.6879 33.9401 35.6409L33.9166 35.6174C33.832 35.5376 33.7474 35.4577 33.6675 35.3731L33.6534 35.359C33.6018 35.3073 33.5548 35.2556 33.5031 35.204L33.4843 35.1852L33.4091 35.1006L33.3292 35.0113L33.2588 34.9314L33.2259 34.8939C33.1883 34.8516 33.1554 34.8093 33.1178 34.767L33.0802 34.72L33.0191 34.6401L32.944 34.5415L32.8735 34.4475L32.8594 34.4287C32.8218 34.3723 32.7795 34.3206 32.7419 34.2643L32.7184 34.2314C32.6761 34.1703 32.6339 34.1092 32.5963 34.0481L32.5916 34.0434L32.5305 33.9494L32.5023 33.9072C32.4694 33.8555 32.4365 33.7991 32.4036 33.7474L32.3895 33.7239C32.3519 33.6581 32.3144 33.5924 32.2768 33.5266L32.2721 33.5219L32.2204 33.4232L32.1969 33.3762C32.1687 33.3245 32.1405 33.2729 32.117 33.2165L32.0935 33.1742C32.07 33.1225 32.0418 33.0708 32.0183 33.0191L31.9949 32.9675L31.9526 32.8688L31.9338 32.8312C31.9103 32.7748 31.8821 32.7137 31.8586 32.6574L31.8398 32.6104C31.8163 32.5493 31.7928 32.4882 31.7693 32.4271L31.7599 32.4036L31.7223 32.2956L31.7082 32.258C31.6895 32.2016 31.666 32.1405 31.6472 32.0841L31.6284 32.0231C31.6143 31.9761 31.6002 31.9291 31.5814 31.8774L31.5579 31.8022L31.5297 31.7083V31.7036L31.4968 31.5814L31.4733 31.4827L31.4592 31.4216C31.4451 31.3653 31.431 31.3089 31.4216 31.2572L31.4075 31.2008L31.384 31.0927L31.3606 30.9706L31.3465 30.8766L31.3324 30.7967C31.323 30.7498 31.3183 30.6981 31.3089 30.6511L31.2948 30.5665L31.2854 30.4772V30.4678L31.2713 30.341C31.2384 30.0403 31.2243 29.7349 31.2243 29.4295C31.2243 29.3872 31.2243 29.3496 31.2243 29.3073C31.229 29.0912 31.2384 28.8797 31.2572 28.6683V28.6589C31.276 28.4522 31.3042 28.2454 31.3371 28.0387L31.3418 28.0199C31.3747 27.8179 31.4169 27.6158 31.4639 27.4138V27.4091C31.4827 27.3339 31.5015 27.254 31.525 27.1789L31.5297 27.1648C31.5626 27.0473 31.5955 26.9298 31.6331 26.8171L31.6378 26.803C31.915 25.9432 32.3285 25.1397 32.85 24.4255C33.3715 23.7066 34.0011 23.0723 34.72 22.5461H34.7247C35.0019 22.3441 35.2932 22.1561 35.5939 21.987L35.5986 21.9823C35.6503 21.9541 35.702 21.9259 35.7537 21.8977L35.8101 21.8695C35.8477 21.8507 35.8899 21.8272 35.9275 21.8084L35.9463 21.799L36.0074 21.7709H36.0121L36.1108 21.7239L36.1953 21.6863L36.3034 21.6393L36.3128 21.6346L36.3739 21.6064L36.388 21.6017L36.4867 21.5594L36.59 21.5171L36.6746 21.4842L36.7827 21.442L36.8625 21.4138L36.9847 21.3715L37.0552 21.348C37.1022 21.3339 37.1491 21.3198 37.1961 21.301L37.2478 21.2869C37.2995 21.2728 37.3512 21.254 37.4029 21.2399L37.4405 21.2305C37.4968 21.2164 37.5532 21.1976 37.6096 21.1835L37.6378 21.1788C37.6942 21.1647 37.7553 21.1506 37.8116 21.1366L37.8492 21.1272C37.9056 21.1131 37.962 21.1037 38.0184 21.0896L38.0607 21.0802C38.117 21.0661 38.1781 21.0567 38.2345 21.0473L38.258 21.0426C38.3191 21.0332 38.3802 21.0238 38.4412 21.0144L38.4694 21.0097C38.5305 21.0003 38.5963 20.9909 38.6574 20.9815L38.6762 20.9768C38.742 20.9674 38.8077 20.9627 38.8688 20.9533H38.8923C38.9581 20.9486 39.0239 20.9392 39.0943 20.9345H39.099C39.1695 20.9298 39.24 20.9251 39.3105 20.9204H39.3152C39.4608 20.911 39.6065 20.911 39.7521 20.911C39.8226 20.911 39.8978 20.911 39.9683 20.9157H39.9777C40.1186 20.9204 40.2596 20.9251 40.4005 20.9392H40.4099C40.4757 20.9439 40.5462 20.9486 40.612 20.958H40.6261C40.6918 20.9627 40.7576 20.9721 40.8234 20.9815H40.8328H40.8422C40.908 20.9909 40.9738 21.0003 41.0395 21.0097H41.0489H41.0583C41.1241 21.0191 41.1852 21.0285 41.251 21.0426H41.2604H41.2698C41.3308 21.052 41.3872 21.0661 41.4483 21.0755L41.4906 21.0849C41.547 21.099 41.6034 21.1084 41.6597 21.1225L41.7067 21.1319C41.7584 21.1459 41.8148 21.1553 41.8665 21.1694L41.9088 21.1788C41.9604 21.1929 42.0074 21.207 42.0591 21.2211L42.1155 21.2352C42.1625 21.2493 42.2095 21.2634 42.2518 21.2775L42.3175 21.2963C42.3598 21.3104 42.4068 21.3245 42.4491 21.3386L42.5384 21.3715L42.6229 21.3997L42.731 21.4373L42.825 21.4748L42.9283 21.5171L43.0035 21.5453C43.0505 21.5641 43.0928 21.5829 43.1398 21.6017L43.1445 21.6064L43.1962 21.6299C43.8117 21.9024 44.3896 22.2454 44.9205 22.6495L44.9064 22.6307ZM45.4139 19.929C57.2965 2.23905 73.0366 25.8398 50.7279 28.3112C50.3755 24.7497 48.3364 21.6816 45.4139 19.929ZM50.7796 29.5845C72.0452 31.0317 59.4719 56.4648 46.1797 38.3802C48.9237 36.4068 50.7232 33.2071 50.7796 29.5845ZM45.1038 39.0615C54.482 58.1986 26.1734 60.031 35.1852 39.4749C36.5712 40.1045 38.1123 40.4522 39.738 40.4522C41.6879 40.4522 43.5157 39.9448 45.1085 39.0615H45.1038ZM34.0575 38.8829C22.1749 56.5729 6.43013 32.9722 28.7435 30.5007C29.0959 34.0622 31.135 37.1304 34.0575 38.8829ZM28.6918 29.2274C7.42622 27.7803 19.9995 2.34711 33.2917 20.4318C30.5477 22.4052 28.7482 25.6049 28.6918 29.2274ZM34.3676 19.7505C24.9893 0.613354 53.298 -1.21907 44.2862 19.337C42.9002 18.7074 41.359 18.3597 39.738 18.3597C37.7881 18.3597 35.9604 18.8672 34.3676 19.7505Z" fill="#000A68"/>
<path fill-rule="evenodd" clip-rule="evenodd" d="M39.737 67.5629C41.4896 64.2364 44.0879 61.53 47.8091 59.3922C49.9798 58.1424 52.268 57.2214 54.5562 56.2207C56.3933 55.4219 58.3338 54.5292 59.9078 53.2747C60.8053 52.5605 61.557 51.7383 62.1537 50.7563C62.7599 49.7555 63.9298 49.3044 65.0527 49.6474C66.171 49.9904 66.8946 51.0147 66.8382 52.1846C66.5187 58.8095 64.8695 65.0586 58.9399 68.761C53.3581 72.2474 46.7003 72.2333 41.8091 77.1714C41.5836 77.4815 41.2829 77.7399 40.9211 77.9279C40.5405 78.1252 40.1364 78.2239 39.737 78.2192C39.3377 78.2192 38.9336 78.1252 38.553 77.9279C38.1912 77.7399 37.8905 77.4768 37.665 77.1714C32.7738 72.2286 26.116 72.2474 20.5341 68.761C14.5999 65.0539 12.9507 58.8095 12.6359 52.1846C12.5795 51.0147 13.3031 49.9904 14.4213 49.6474C15.5396 49.3044 16.7142 49.7508 17.3203 50.7563C17.917 51.7383 18.6688 52.5605 19.5662 53.2747C21.1402 54.5339 23.0807 55.4219 24.9179 56.2207C27.206 57.2167 29.4942 58.1424 31.6649 59.3922C35.3862 61.5347 37.9845 64.2364 39.737 67.5629ZM39.7511 75.6914L39.7464 75.6679C49.0025 65.9137 63.3284 72.5716 64.3151 52.0625C58.6204 61.4736 42.9743 57.3389 39.737 75.6162C36.4997 57.3389 20.8536 61.4689 15.159 52.0625C16.1457 72.5716 30.4715 65.9137 39.7276 75.6679L39.7229 75.6914L39.737 75.6773L39.7511 75.6914Z" fill="#000A68"/>
<path fill-rule="evenodd" clip-rule="evenodd" d="M39.7523 75.6914L39.7476 75.6679C49.0037 65.9137 63.3295 72.5716 64.3162 52.0624C58.6216 61.4736 42.9755 57.3389 39.7382 75.6162C36.5009 57.3389 20.8548 61.4689 15.1602 52.0624C16.1468 72.5716 30.4727 65.9137 39.7288 75.6679L39.7241 75.6914L39.7382 75.6773L39.7523 75.6914Z" fill="url(#paint0_linear)"/>
<defs>
<linearGradient id="paint0_linear" x1="15.1602" y1="52.0624" x2="66.5419" y2="68.8989" gradientUnits="userSpaceOnUse">
<stop stop-color="#E3EEFF"/>
<stop offset="0.526042" stop-color="#E4F6E4"/>
<stop offset="1" stop-color="#FFEEE4"/>
</linearGradient>
</defs>
</svg>
