<svg width="80" height="80" viewBox="0 0 80 80" fill="none" xmlns="http://www.w3.org/2000/svg">
<path fill-rule="evenodd" clip-rule="evenodd" d="M13.1696 32.2735H68.6564V15.419C68.6564 10.7161 64.8025 6.86224 60.0996 6.86224H21.7208C17.0179 6.86224 13.1641 10.7161 13.1641 15.419V32.2735H13.1696Z" fill="url(#paint0_linear)"/>
<path fill-rule="evenodd" clip-rule="evenodd" d="M23.8048 14.8842L26.2086 21.6712L28.6014 14.8842H31.1321V24.246H29.1969V21.6878L29.3898 17.2715L26.8647 24.246H25.5415L23.0219 17.2771L23.2148 21.6878V24.246H21.2852V14.8842H23.8048ZM38.4484 20.1771H34.7489V22.6912H39.0934V24.246H32.8192V14.8842H39.0824V16.45H34.7489V18.6775H38.4484V20.1771ZM47.8432 24.246H45.9135V20.2322H42.1533V24.246H40.2237V14.8842H42.1533V18.6775H45.9135V14.8842H47.8432V24.246ZM60.535 19.7801C60.535 20.7009 60.3751 21.5113 60.0498 22.206C59.7245 22.9007 59.2559 23.4355 58.6494 23.8159C58.043 24.1908 57.3483 24.3838 56.5654 24.3838C55.8486 24.3838 55.2091 24.2294 54.6412 23.9152C54.0733 23.6009 53.6102 23.1543 53.2573 22.5699C52.9045 21.9855 52.6894 21.3018 52.6067 20.5244H51.5316V24.2515H49.6019V14.8898H51.5316V19.0248H52.5737C52.6123 18.1812 52.7997 17.4369 53.136 16.7864C53.4723 16.1413 53.9355 15.6396 54.5309 15.2867C55.1264 14.9339 55.799 14.7574 56.5543 14.7574C57.3317 14.7574 58.0264 14.9449 58.6329 15.3198C59.2394 15.6947 59.708 16.235 60.0388 16.9352C60.3696 17.6354 60.535 18.4459 60.535 19.3666V19.7856V19.7801ZM58.5833 19.3556C58.5833 18.3742 58.4068 17.6244 58.054 17.1172C57.7011 16.6044 57.2049 16.3508 56.5488 16.3508C55.9038 16.3508 55.402 16.6044 55.0492 17.1061C54.6963 17.6134 54.5199 18.3522 54.5144 19.3225V19.7801C54.5144 20.7395 54.6908 21.4783 55.0437 22.0075C55.3965 22.5368 55.9038 22.8015 56.5598 22.8015C57.2049 22.8015 57.7011 22.5479 58.0485 22.0351C58.3958 21.5279 58.5722 20.7891 58.5777 19.8132V19.3556H58.5833Z" fill="#000A68"/>
<path fill-rule="evenodd" clip-rule="evenodd" d="M21.725 4.21607H60.1038C66.2677 4.21607 71.307 9.25531 71.307 15.4193V51.4769L71.2519 51.532H71.307L47.8916 74.9474V74.8923L47.8365 74.9474H21.7306C15.5666 74.9474 10.5273 69.9082 10.5273 63.7442V15.4138C10.5273 9.2498 15.5666 4.21056 21.7306 4.21056L21.725 4.21607ZM68.6606 51.532V34.6483H13.1683V63.7497C13.1683 68.4581 17.0166 72.3065 21.725 72.3065H47.8861V62.9062C47.8861 56.6484 53.0025 51.532 59.2602 51.532H68.6606ZM68.6606 15.4193V32.002H13.1683V15.4193C13.1683 10.7108 17.0166 6.8625 21.725 6.8625H60.1038C64.8122 6.8625 68.6606 10.7108 68.6606 15.4193ZM64.917 54.1785H59.2602C54.4636 54.1785 50.5325 58.1095 50.5325 62.9062V68.5629L64.917 54.1785ZM26.3455 45.7482H22.1112C21.3834 45.7482 20.788 46.3437 20.788 47.0714C20.788 47.7992 21.3834 48.3946 22.1112 48.3946H26.3455C27.0732 48.3946 27.6687 47.7992 27.6687 47.0714C27.6687 46.3437 27.0732 45.7482 26.3455 45.7482ZM59.7125 45.7482H32.107C31.3792 45.7482 30.7838 46.3437 30.7838 47.0714C30.7838 47.7992 31.3792 48.3946 32.107 48.3946H59.7125C60.4403 48.3946 61.0357 47.7992 61.0357 47.0714C61.0357 46.3437 60.4403 45.7482 59.7125 45.7482ZM31.2414 56.3339H22.1112C21.3834 56.3339 20.788 56.9294 20.788 57.6571C20.788 58.3849 21.3834 58.9803 22.1112 58.9803H31.2414C31.9691 58.9803 32.5646 58.3849 32.5646 57.6571C32.5646 56.9294 31.9691 56.3339 31.2414 56.3339ZM42.1138 56.3339H36.8705C36.1428 56.3339 35.5473 56.9294 35.5473 57.6571C35.5473 58.3849 36.1428 58.9803 36.8705 58.9803H42.1138C42.8415 58.9803 43.437 58.3849 43.437 57.6571C43.437 56.9294 42.8415 56.3339 42.1138 56.3339Z" fill="#000A68"/>
<defs>
<linearGradient id="paint0_linear" x1="13.1641" y1="6.86224" x2="70.6014" y2="26.6187" gradientUnits="userSpaceOnUse">
<stop stop-color="#E3EEFF"/>
<stop offset="0.526042" stop-color="#E4F6E4"/>
<stop offset="1" stop-color="#FFEEE4"/>
</linearGradient>
</defs>
</svg>
