<svg width="64" height="64" viewBox="0 0 64 64" fill="none" xmlns="http://www.w3.org/2000/svg">
<path fill-rule="evenodd" clip-rule="evenodd" d="M15.5895 3.36844H44.3464C49.2152 3.36844 53.1976 7.35085 53.1976 12.2196V48.6248C53.1976 53.4936 49.2152 57.476 44.3464 57.476H15.5895C10.7207 57.476 6.73828 53.4936 6.73828 48.6248V12.2196C6.73828 7.35085 10.7207 3.36844 15.5895 3.36844V3.36844ZM16.2986 33.4993H28.0686C28.6764 33.4993 29.1765 33.9994 29.1765 34.6073C29.1765 35.2151 28.6764 35.7152 28.0686 35.7152H16.2986C15.6908 35.7152 15.1906 35.2151 15.1906 34.6073C15.1906 33.9994 15.6908 33.4993 16.2986 33.4993ZM16.2986 15.7335H24.7383C25.3461 15.7335 25.8463 16.2337 25.8463 16.8415C25.8463 17.4493 25.3461 17.9495 24.7383 17.9495H16.2986C15.6908 17.9495 15.1906 17.4493 15.1906 16.8415C15.1906 16.2337 15.6908 15.7335 16.2986 15.7335ZM29.5754 15.7335H43.7513C44.3591 15.7335 44.8593 16.2337 44.8593 16.8415C44.8593 17.4493 44.3591 17.9495 43.7513 17.9495H29.5754C28.9676 17.9495 28.4674 17.4493 28.4674 16.8415C28.4674 16.2337 28.9676 15.7335 29.5754 15.7335ZM16.2986 24.6164H21.0724C21.6802 24.6164 22.1804 25.1166 22.1804 25.7244C22.1804 26.3322 21.6802 26.8324 21.0724 26.8324H16.2986C15.6908 26.8324 15.1906 26.3322 15.1906 25.7244C15.1906 25.1166 15.6908 24.6164 16.2986 24.6164ZM26.3528 24.6164H43.7449C44.3527 24.6164 44.8529 25.1166 44.8529 25.7244C44.8529 26.3322 44.3527 26.8324 43.7449 26.8324H26.3528C25.745 26.8324 25.2448 26.3322 25.2448 25.7244C25.2448 25.1166 25.745 24.6164 26.3528 24.6164ZM15.5895 5.59074C11.949 5.59074 8.96058 8.57913 8.96058 12.2196V48.6248C8.96058 52.2653 11.949 55.2537 15.5895 55.2537H44.3464C47.9869 55.2537 50.9753 52.2653 50.9753 48.6248V12.2196C50.9753 8.57913 47.9869 5.59074 44.3464 5.59074H15.5895Z" fill="#001970"/>
<path d="M42.32 57.7357C48.4532 57.7357 53.4252 52.7637 53.4252 46.6305C53.4252 40.4973 48.4532 35.5253 42.32 35.5253C36.1868 35.5253 31.2148 40.4973 31.2148 46.6305C31.2148 52.7637 36.1868 57.7357 42.32 57.7357Z" fill="url(#paint0_linear)"/>
<path fill-rule="evenodd" clip-rule="evenodd" d="M36.1734 45.0351C36.6039 44.6045 37.313 44.6045 37.7436 45.0351L41.0802 48.3717L46.9113 42.5405C47.3419 42.11 48.051 42.11 48.4815 42.5405C48.912 42.9711 48.912 43.6802 48.4815 44.1107L41.8653 50.7269L41.8463 50.7459L41.8273 50.7649L41.8083 50.7839L41.7893 50.8029L41.7703 50.8219L41.745 50.8409L41.7197 50.8599L41.6943 50.8726L41.669 50.8852L41.6437 50.8979L41.6183 50.9106L41.593 50.9232L41.5677 50.9359L41.5424 50.9485L41.517 50.9612L41.4917 50.9739L41.4664 50.9865L41.4411 50.9929L41.4157 50.9992L41.3904 51.0055L41.3651 51.0119L41.3398 51.0182L41.3144 51.0245L41.2891 51.0308L41.2638 51.0372L41.2385 51.0435L41.2131 51.0498H41.1878H41.1625H41.1372H41.1118H41.0865H41.0612H41.0359H41.0105H40.9852H40.9599L40.9346 51.0435L40.9092 51.0372L40.8839 51.0308L40.8586 51.0245L40.8333 51.0182L40.8079 51.0119L40.7826 51.0055L40.7573 50.9992L40.732 50.9929L40.7066 50.9865L40.6813 50.9739L40.656 50.9612L40.6307 50.9485L40.6053 50.9359L40.58 50.9232L40.5547 50.9106L40.5294 50.8979L40.504 50.8852L40.4787 50.8726L40.4534 50.8599L40.4281 50.8409L40.4027 50.8219L40.3837 50.8029L40.3647 50.7839L40.3458 50.7649L40.3268 50.7459L40.3078 50.7269L36.1861 46.6052C35.7555 46.1747 35.7555 45.4656 36.1861 45.0351H36.1734ZM42.3275 33.3094C49.6845 33.3094 55.6549 39.2736 55.6549 46.6369C55.6549 53.9939 49.6908 59.9644 42.3275 59.9644C34.9704 59.9644 29 54.0002 29 46.6369C29 39.2799 34.9641 33.3094 42.3275 33.3094ZM42.3275 35.5317C48.4625 35.5317 53.4326 40.5018 53.4326 46.6369C53.4326 52.772 48.4625 57.7421 42.3275 57.7421C36.1924 57.7421 31.2223 52.772 31.2223 46.6369C31.2223 40.5018 36.1924 35.5317 42.3275 35.5317Z" fill="#001970"/>
<defs>
<linearGradient id="paint0_linear" x1="31.2148" y1="35.5253" x2="56.3011" y2="39.4767" gradientUnits="userSpaceOnUse">
<stop stop-color="#E3EEFF"/>
<stop offset="0.526042" stop-color="#E4F6E4"/>
<stop offset="1" stop-color="#FFEEE4"/>
</linearGradient>
</defs>
</svg>
