<svg width="80" height="80" viewBox="0 0 80 80" fill="none" xmlns="http://www.w3.org/2000/svg">
<path d="M54.7151 56.9223C51.2319 59.1817 46.5562 58.1932 44.2968 54.6943C42.0374 51.2111 43.0259 46.5354 46.5248 44.276C47.7486 43.4915 49.1608 43.0679 50.6199 43.0679C53.4756 43.0836 56.0801 44.684 57.3667 47.2415C54.8092 49.7519 53.805 53.4548 54.7151 56.9223ZM69.6835 59.7622C66.7024 62.6649 61.9326 62.6021 59.0299 59.621C56.1272 56.6399 56.19 51.8701 59.1711 48.9674C60.5832 47.6023 62.466 46.8335 64.4273 46.8335C64.4587 46.8335 64.4901 46.8335 64.5371 46.8335C68.695 46.8963 72.0213 50.301 71.9586 54.4589C71.9272 56.4673 71.1113 58.3658 69.6835 59.7622Z" fill="url(#paint0_linear)"/>
<path d="M40.9895 39.1923C35.4508 39.1923 30.9478 34.6892 30.9478 29.1506C30.9478 23.612 35.4508 19.1089 40.9895 19.1089C46.5281 19.1089 51.0312 23.612 51.0312 29.1506C51.0312 34.6892 46.5281 39.1766 40.9895 39.1923Z" fill="url(#paint1_linear)"/>
<path fill-rule="evenodd" clip-rule="evenodd" d="M40.6564 51.8542H9.58822C8.89785 51.8542 8.33301 51.2894 8.33301 50.599V7.92172C8.33301 7.23135 8.89785 6.6665 9.58822 6.6665H75.724C76.4143 6.6665 76.9792 7.23135 76.9792 7.92172V50.5833C76.9792 51.2737 76.4143 51.8385 75.724 51.8385H74.155C74.3589 52.6701 74.4688 53.5174 74.4688 54.3646C74.4688 59.919 69.9657 64.4064 64.427 64.4064H64.2858C60.7085 64.3593 57.4292 62.398 55.6719 59.2757C54.5109 59.9504 53.2086 60.3897 51.8749 60.5623C46.3677 61.2526 41.3468 57.3615 40.6564 51.8542ZM44.2966 54.6941C46.5559 58.1931 51.2316 59.1815 54.7148 56.9221C53.8048 53.4546 54.809 49.7517 57.3665 47.2413C56.0799 44.6838 53.4753 43.0834 50.6197 43.0677C49.1605 43.0677 47.7484 43.4914 46.5246 44.2759C43.0256 46.5352 42.0372 51.2109 44.2966 54.6941ZM20.4615 44.3229H42.7903C43.261 43.7424 43.7788 43.2089 44.3593 42.7539C48.6741 39.3021 54.9972 39.9924 58.4491 44.3229H64.8507C65.949 42.4087 67.5337 40.824 69.4479 39.7257V18.795C67.5337 17.6967 65.949 16.112 64.8507 14.1978H20.4615C19.3632 16.112 17.7785 17.6967 15.8643 18.795V39.7257C17.7785 40.824 19.3632 42.4087 20.4615 44.3229ZM59.0296 59.6209C61.9323 62.602 66.7021 62.6648 69.6833 59.7621C71.1111 58.3656 71.9269 56.4671 71.9583 54.4588C72.0211 50.3009 68.6948 46.8961 64.5369 46.8334H64.427C62.4658 46.8334 60.583 47.6022 59.1708 48.9672C56.1897 51.8699 56.1269 56.6397 59.0296 59.6209ZM74.4688 9.17693H10.8434V49.3438H40.6564C40.7663 48.4808 40.9859 47.6336 41.3154 46.8334H19.7084C19.222 46.8334 18.7984 46.5666 18.5787 46.143C17.6059 44.1817 16.0055 42.5813 14.0442 41.6085C13.6206 41.3889 13.3539 40.9495 13.3539 40.4788V18.0419C13.3539 17.5555 13.6206 17.1319 14.0442 16.9122C16.0212 15.9394 17.6059 14.3547 18.5787 12.3777C18.7984 11.9541 19.2377 11.6874 19.7084 11.6874H65.6038C66.0902 11.6874 66.5138 11.9541 66.7335 12.3777C67.7063 14.3547 69.291 15.9394 71.268 16.8965C71.6916 17.1162 71.9583 17.5555 71.9583 18.0262V40.4632C71.9583 40.9495 71.6916 41.3732 71.268 41.5928C69.7617 42.346 68.4751 43.4443 67.518 44.8093C69.8715 45.5782 71.8799 47.1942 73.1194 49.3438H73.2135H74.4688V9.17693ZM40.9892 16.5986C47.9242 16.5986 53.5413 22.2157 53.5413 29.1507C53.5413 36.0858 47.9242 41.6872 40.9892 41.7029C34.0541 41.7029 28.437 36.0858 28.437 29.1507C28.437 22.2157 34.0541 16.5986 40.9892 16.5986ZM30.9475 29.1507C30.9475 34.6894 35.4506 39.1924 40.9892 39.1924C46.5278 39.1768 51.0309 34.6894 51.0309 29.1507C51.0309 23.6121 46.5278 19.109 40.9892 19.109C35.4506 19.109 30.9475 23.6121 30.9475 29.1507ZM50.6195 48.0889C51.3099 48.0889 51.8747 47.5241 51.8747 46.8337C51.8747 46.1433 51.3099 45.5785 50.6195 45.5785C47.8423 45.5785 45.5986 47.8222 45.5986 50.5993C45.5986 53.3765 47.8423 55.6202 50.6195 55.6202C51.3099 55.6202 51.8747 55.0554 51.8747 54.365C51.8747 53.6746 51.3099 53.1098 50.6195 53.1098C49.2388 53.1098 48.1091 51.9801 48.1091 50.5993C48.1091 49.2186 49.2388 48.0889 50.6195 48.0889ZM64.4268 49.3439H64.4895C67.2667 49.391 69.479 51.666 69.4476 54.4275C69.4319 55.1179 68.8828 55.667 68.1924 55.667H68.1767C67.4864 55.6513 66.9215 55.0865 66.9372 54.3961C66.9529 53.0154 65.8389 51.87 64.4582 51.8543C63.0774 51.8386 61.932 52.9526 61.9164 54.3334C61.9007 55.0237 61.3358 55.5886 60.6454 55.5729C59.9551 55.5572 59.3902 54.9923 59.4059 54.302C59.453 51.5562 61.681 49.3439 64.4268 49.3439Z" fill="#7ECA1D"/>
<path fill-rule="evenodd" clip-rule="evenodd" d="M18.0219 43.5601C27.0564 43.5601 34.3774 50.884 34.3774 59.9155C34.3774 68.9499 27.0534 76.2709 18.0219 76.2709C8.9875 76.2709 1.6665 68.947 1.6665 59.9155C1.6665 50.8811 8.99044 43.5601 18.0219 43.5601Z" fill="#7ECA1D"/>
<path fill-rule="evenodd" clip-rule="evenodd" d="M18.1424 45.7759C25.9513 45.7759 32.2848 52.1064 32.2848 59.9183C32.2848 67.7271 25.9542 74.0606 18.1424 74.0606C10.3335 74.0606 4 67.7301 4 59.9183C4 52.1094 10.3306 45.7759 18.1424 45.7759Z" fill="url(#paint2_linear)"/>
<path fill-rule="evenodd" clip-rule="evenodd" d="M12.1161 54.1156C12.6043 53.6275 13.3957 53.6275 13.8839 54.1156L23.8839 64.1156C24.372 64.6038 24.372 65.3952 23.8839 65.8834C23.3957 66.3716 22.6043 66.3716 22.1161 65.8834L12.1161 55.8834C11.628 55.3952 11.628 54.6038 12.1161 54.1156Z" fill="#7ECA1D"/>
<path fill-rule="evenodd" clip-rule="evenodd" d="M23.8839 54.1156C24.372 54.6038 24.372 55.3952 23.8839 55.8834L13.8839 65.8834C13.3957 66.3715 12.6043 66.3715 12.1161 65.8834C11.628 65.3952 11.628 64.6038 12.1161 64.1156L22.1161 54.1156C22.6043 53.6275 23.3957 53.6275 23.8839 54.1156Z" fill="#7ECA1D"/>
<defs>
<linearGradient id="paint0_linear" x1="43.085" y1="43.0679" x2="74.6653" y2="50.6951" gradientUnits="userSpaceOnUse">
<stop stop-color="#E3EEFF"/>
<stop offset="0.526042" stop-color="#E4F6E4"/>
<stop offset="1" stop-color="#FFEEE4"/>
</linearGradient>
<linearGradient id="paint1_linear" x1="30.9478" y1="19.1089" x2="53.6317" y2="22.6818" gradientUnits="userSpaceOnUse">
<stop stop-color="#E3EEFF"/>
<stop offset="0.526042" stop-color="#E4F6E4"/>
<stop offset="1" stop-color="#FFEEE4"/>
</linearGradient>
<linearGradient id="paint2_linear" x1="4" y1="45.7759" x2="35.9473" y2="50.8079" gradientUnits="userSpaceOnUse">
<stop stop-color="#E3EEFF"/>
<stop offset="0.526042" stop-color="#E4F6E4"/>
<stop offset="1" stop-color="#FFEEE4"/>
</linearGradient>
</defs>
</svg>
