<svg width="302" height="150" viewBox="0 0 302 150" fill="none" xmlns="http://www.w3.org/2000/svg">
<path d="M111.13 44.2437H117.307L124.352 66.4026L131.35 44.2437H137.567L127.848 73.0727H120.803L111.13 44.2437Z" fill="#043E44"/>
<path d="M159.359 62.7808C159.359 68.9186 154.831 73.6565 149.311 73.6565C146.301 73.6565 144.119 72.546 142.641 70.6468V81.3123H137.331V52.4833H142.641V54.9148C144.126 53.0222 146.308 51.905 149.311 51.905C154.831 51.905 159.359 56.643 159.359 62.7808ZM154.042 62.7808C154.042 59.3242 151.611 56.9715 148.318 56.9715C145.066 56.9715 142.634 59.3175 142.634 62.7808C142.634 66.2374 145.066 68.5899 148.318 68.5899C151.617 68.5834 154.042 66.2374 154.042 62.7808Z" fill="#043E44"/>
<path d="M173.566 52.0703V57.9977C170.806 57.6692 167.303 58.9045 167.303 63.2285V73.0727H161.993V52.4778H167.303V56.0198C168.374 53.2202 170.97 52.0703 173.566 52.0703Z" fill="#043E44"/>
<path d="M173.692 62.7808C173.692 56.643 178.509 51.905 184.568 51.905C190.621 51.905 195.483 56.643 195.483 62.7808C195.483 68.9186 190.621 73.6565 184.568 73.6565C178.509 73.6499 173.692 68.9119 173.692 62.7808ZM190.167 62.7808C190.167 59.4425 187.736 57.0965 184.568 57.0965C181.44 57.0965 179.009 59.4425 179.009 62.7808C179.009 66.119 181.44 68.4651 184.568 68.4651C187.736 68.4584 190.167 66.1126 190.167 62.7808Z" fill="#043E44"/>
<path d="M210.919 73.0717L203.421 63.7206V73.0717H198.111V44.2427H203.421V61.5389L210.505 52.4768H216.846L208.566 62.6494L217.09 73.0717H210.919Z" fill="#043E44"/>
<path d="M218.206 70.1088C218.206 68.1702 219.77 66.6062 221.709 66.6062C223.647 66.6062 225.211 68.1702 225.211 70.1088C225.211 72.0474 223.647 73.6114 221.709 73.6114C219.77 73.6114 218.206 72.0474 218.206 70.1088Z" fill="#043E44"/>
<path d="M240.115 52.0703V57.9977C237.355 57.6692 233.853 58.9045 233.853 63.2285V73.0727H228.536V52.4778H233.853V56.0198C234.931 53.2202 237.519 52.0703 240.115 52.0703Z" fill="#043E44"/>
<path d="M261 52.4834V73.0783H255.69V70.7718C254.455 72.625 252.313 73.6566 249.552 73.6566C245.189 73.6566 241.766 70.6075 241.766 65.1336V52.4901H247.075V64.4763C247.075 67.2757 248.763 68.7216 251.155 68.7216C253.751 68.7216 255.683 67.1969 255.683 63.6154V52.4965H261V52.4834Z" fill="#043E44"/>
<path d="M127.881 100.613H124.609V87.1279H118.747V100.613H115.468V83.9934H127.881V100.613Z" fill="#043E44"/>
<path d="M136.522 98.1677C137.712 98.1677 138.658 97.6681 139.184 96.9782L141.655 98.4041C140.538 100.021 138.757 100.947 136.476 100.947C132.488 100.947 129.971 98.2137 129.971 94.6782C129.971 91.1427 132.514 88.4089 136.24 88.4089C139.756 88.4089 142.246 91.1887 142.246 94.6782C142.246 95.1317 142.2 95.5325 142.128 95.9333H133.178C133.605 97.504 134.906 98.1677 136.522 98.1677ZM139.184 93.561C138.803 91.8524 137.521 91.1624 136.24 91.1624C134.604 91.1624 133.486 92.043 133.132 93.561H139.184Z" fill="#043E44"/>
<path d="M156.848 94.6782C156.848 98.2137 154.239 100.947 151.059 100.947C149.324 100.947 148.069 100.303 147.215 99.2124V105.363H144.152V88.7441H147.215V90.144C148.069 89.053 149.324 88.4089 151.059 88.4089C154.233 88.4156 156.848 91.1427 156.848 94.6782ZM153.786 94.6782C153.786 92.6871 152.386 91.3333 150.487 91.3333C148.614 91.3333 147.208 92.6871 147.208 94.6782C147.208 96.6693 148.608 98.0231 150.487 98.0231C152.386 98.0296 153.786 96.6759 153.786 94.6782Z" fill="#043E44"/>
<path d="M164.708 98.1677C165.897 98.1677 166.844 97.6681 167.369 96.9782L169.84 98.4041C168.723 100.021 166.942 100.947 164.662 100.947C160.673 100.947 158.156 98.2137 158.156 94.6782C158.156 91.1427 160.7 88.4089 164.426 88.4089C167.941 88.4089 170.432 91.1887 170.432 94.6782C170.432 95.1317 170.386 95.5325 170.314 95.9333H161.363C161.784 97.504 163.091 98.1677 164.708 98.1677ZM167.363 93.561C166.982 91.8524 165.7 91.1624 164.419 91.1624C162.783 91.1624 161.666 92.043 161.311 93.561H167.363Z" fill="#043E44"/>
<path d="M179.711 100.613L175.393 95.2248V100.613H172.331V88.7454H175.393V93.9695L179.474 88.7454H183.128L178.357 94.607L183.272 100.613H179.711Z" fill="#043E44"/>
<path d="M197.257 94.6782C197.257 98.2137 194.648 100.947 191.467 100.947C189.732 100.947 188.477 100.303 187.623 99.2124V105.363H184.561V88.7441H187.623V90.144C188.477 89.053 189.732 88.4089 191.467 88.4089C194.641 88.4156 197.257 91.1427 197.257 94.6782ZM194.194 94.6782C194.194 92.6871 192.794 91.3333 190.895 91.3333C189.022 91.3333 187.623 92.6871 187.623 94.6782C187.623 96.6693 189.022 98.0231 190.895 98.0231C192.794 98.0296 194.194 96.6759 194.194 94.6782Z" fill="#043E44"/>
<path d="M205.116 98.1687C206.306 98.1687 207.252 97.6692 207.778 96.9792L210.249 98.4051C209.131 100.022 207.351 100.948 205.07 100.948C201.081 100.948 198.564 98.2145 198.564 94.6792C198.564 91.1437 201.108 88.41 204.834 88.41C208.349 88.41 210.84 91.1897 210.84 94.6792C210.84 95.1327 210.794 95.5335 210.722 95.9343H201.771C202.199 97.505 203.5 98.1687 205.116 98.1687ZM200.819 85.8997C200.819 85.0192 201.555 84.2832 202.435 84.2832C203.316 84.2832 204.025 85.0192 204.025 85.8997C204.025 86.7803 203.316 87.49 202.435 87.49C201.555 87.49 200.819 86.7736 200.819 85.8997ZM207.778 93.562C207.397 91.8534 206.115 91.1635 204.834 91.1635C203.197 91.1635 202.08 92.044 201.725 93.562H207.778ZM205.327 85.8997C205.327 85.0192 206.063 84.2832 206.943 84.2832C207.824 84.2832 208.533 85.0192 208.533 85.8997C208.533 86.7803 207.824 87.49 206.943 87.49C206.063 87.49 205.327 86.7736 205.327 85.8997Z" fill="#043E44"/>
<path d="M212.023 94.6782C212.023 91.1427 214.685 88.4089 218.293 88.4089C220.619 88.4089 222.636 89.6444 223.609 91.4714L220.974 93.0156C220.501 92.043 219.476 91.4253 218.266 91.4253C216.44 91.4253 215.086 92.779 215.086 94.6782C215.086 96.5511 216.44 97.9048 218.266 97.9048C219.502 97.9048 220.52 97.3134 220.993 96.3408L223.655 97.8587C222.636 99.7119 220.619 100.947 218.293 100.947C214.685 100.947 212.023 98.2137 212.023 94.6782Z" fill="#043E44"/>
<path d="M234.957 91.6893H231.25V100.613H228.188V91.6893H224.436V88.7454H234.949V91.6893H234.957Z" fill="#043E44"/>
<path d="M235.265 94.6782C235.265 91.1427 238.045 88.4089 241.534 88.4089C245.024 88.4089 247.823 91.1362 247.823 94.6782C247.823 98.2137 245.024 100.947 241.534 100.947C238.045 100.947 235.265 98.2137 235.265 94.6782ZM244.762 94.6782C244.762 92.7527 243.36 91.4055 241.534 91.4055C239.733 91.4055 238.328 92.7594 238.328 94.6782C238.328 96.597 239.727 97.9573 241.534 97.9573C243.36 97.9573 244.762 96.6036 244.762 94.6782Z" fill="#043E44"/>
<path d="M257.128 100.613L252.804 95.2248V100.613H249.742V88.7454H252.804V93.9695L256.886 88.7454H260.539L255.767 94.607L260.683 100.613H257.128Z" fill="#043E44"/>
<path d="M85.7157 44H52.3887C46.1233 44 41 49.1232 41 55.3886V88.7157C41 94.9811 46.1233 100.105 52.3887 100.105H85.7157C91.9811 100.105 97.1045 94.9811 97.1045 88.7157V55.3886C97.1045 49.1297 91.9811 44 85.7157 44Z" fill="#043E44"/>
<path d="M69.3266 63.5441L60.8223 72.055L69.3266 80.5658C74.0241 85.2632 81.6381 85.2632 86.3291 80.5658C91.0265 75.8685 91.0265 68.248 86.3291 63.5506C81.6316 58.8468 74.0176 58.8468 69.3266 63.5441Z" fill="white"/>
<path d="M53.9381 72.0556L45.4337 63.5447C44.8078 62.9187 44.1303 62.3896 43.4141 61.938V82.173C44.1303 81.7213 44.8078 81.1857 45.4337 80.5599L53.9381 72.0556Z" fill="white"/>
<path d="M65.8816 84.0113L57.3836 75.5005L48.8792 84.0113C46.0336 86.8569 44.9367 90.806 45.5368 94.4968C47.1822 96.4454 49.647 97.6907 52.3958 97.6907H68.2432C70.3661 93.2191 69.5789 87.7086 65.8816 84.0113Z" fill="white"/>
<path d="M48.8774 60.0985L57.3754 68.6093L65.8799 60.0985C69.5771 56.4012 70.3514 50.8844 68.2285 46.4128H52.3876C49.6388 46.4128 47.174 47.6582 45.5286 49.6132C44.935 53.2975 46.0383 57.2594 48.8774 60.0985Z" fill="white"/>
</svg>
