<svg width="302" height="150" viewBox="0 0 302 150" fill="none" xmlns="http://www.w3.org/2000/svg">
<path d="M221.638 91.4222C224.674 91.4222 226.828 90.8619 228.428 89.6882V84.2645C226.771 85.4382 224.784 86.1658 222.023 86.1658C217.331 86.1658 215.399 82.4748 215.399 76.6594C215.399 70.5639 217.773 67.4332 222.079 67.4332C224.619 67.4332 227.103 68.328 228.428 69.1672V63.5191C227.048 62.7357 224.619 62.1768 221.361 62.1768C212.97 62.1768 208.607 68.2723 208.607 76.8267C208.607 86.2216 212.858 91.4222 221.638 91.4222V91.4222ZM180.56 88.9606V83.5369C178.517 84.935 175.094 86.1658 171.892 86.1658C167.087 86.1658 165.266 83.8728 164.989 79.1754H180.835V75.653C180.835 65.8678 176.583 62.1768 170.014 62.1768C162.008 62.1768 158.197 68.3838 158.197 76.8824C158.197 86.669 162.947 91.4208 171.338 91.4208C175.535 91.4208 178.627 90.3029 180.56 88.9606V88.9606ZM120.378 62.7357V73.8632H111.599V62.7357H105.029V90.8619H111.599V79.121H120.378V90.8632H126.949V62.7384H120.378V62.7357ZM156.598 85.6082H153.67V62.7357H134.513V65.1402C134.513 72.0177 134.073 80.9094 131.754 85.6068H129.71V97.2933H135.783V90.8619H150.525V97.2933H156.599V85.6068L156.598 85.6082ZM201.54 90.8632H208.993L198.448 75.7101L207.724 62.7371H201.099L191.822 75.7101V62.7371H185.253V90.8632H191.822V77.0511L201.54 90.8619V90.8632ZM169.903 67.4345C173.161 67.4345 174.154 70.1749 174.154 73.6973V74.2563H164.989C165.156 69.7819 166.756 67.4345 169.904 67.4345H169.903ZM147.101 85.6082H137.825C139.647 81.3582 140.144 73.6973 140.144 68.8326V67.9935H147.1V85.6082H147.101Z" fill="black"/>
<path d="M99.5076 90.862H92.8269V57.2564H89.8457C84.3803 57.2564 81.5093 60.0512 81.5093 64.1897C81.5093 68.8858 83.4967 71.0672 87.5817 73.8634L90.9495 76.1563L81.2326 90.862H74L82.7232 77.7217C77.6996 74.0864 74.8836 70.564 74.8836 64.5814C74.8836 57.0878 80.0187 52 89.7907 52H99.5076V90.862Z" fill="#FC3F1D"/>
</svg>
