<svg width="302" height="150" viewBox="0 0 302 150" fill="none" xmlns="http://www.w3.org/2000/svg">
<path fill-rule="evenodd" clip-rule="evenodd" d="M91.7607 49.4346H98.3866L105.099 65.6714L112.506 49.4346H119.151L102.967 84.779H96.27L101.583 73.3805L91.7607 49.4346Z" fill="#006C43"/>
<path fill-rule="evenodd" clip-rule="evenodd" d="M147.341 54.6654L141.941 57.6401C140.926 56.5763 139.927 55.8401 138.936 55.426C137.944 55.0149 136.783 54.8086 135.451 54.8086C133.027 54.8086 131.064 55.5334 129.568 56.9824C128.068 58.432 127.317 60.2857 127.317 62.5525C127.317 64.7521 128.038 66.5497 129.484 67.9419C130.925 69.3358 132.821 70.0323 135.164 70.0323C138.068 70.0323 140.326 69.0407 141.941 67.0577L147.056 70.5647C144.284 74.1722 140.372 75.9771 135.324 75.9771C130.778 75.9771 127.218 74.6315 124.645 71.9337C122.071 69.2389 120.786 66.0829 120.786 62.4674C120.786 59.9621 121.411 57.6555 122.664 55.5463C123.913 53.4391 125.658 51.7798 127.899 50.5758C130.14 49.3698 132.646 48.7668 135.418 48.7668C137.986 48.7668 140.287 49.2799 142.329 50.3009C144.374 51.3249 146.043 52.7789 147.341 54.6654Z" fill="#006C43"/>
<path fill-rule="evenodd" clip-rule="evenodd" d="M152.677 75.3119V40.324H158.169C161.355 40.324 163.688 40.5303 165.161 40.9429C167.252 41.4971 168.918 42.5286 170.154 44.0319C171.391 45.5406 172.008 47.3162 172.008 49.3623C172.008 50.694 171.729 51.9025 171.166 52.9881C170.605 54.0738 169.69 55.0948 168.424 56.0463C170.545 57.0444 172.098 58.2937 173.079 59.7935C174.063 61.2902 174.552 63.0618 174.552 65.108C174.552 67.0744 174.046 68.8651 173.028 70.4835C172.013 72.1017 170.706 73.3097 169.106 74.1105C167.504 74.9113 165.295 75.3119 162.474 75.3119H152.677ZM159.33 46.6753V54.0478H160.782C162.404 54.0478 163.607 53.7073 164.394 53.0253C165.181 52.3433 165.575 51.4147 165.575 50.2415C165.575 49.1479 165.201 48.279 164.454 47.6372C163.707 46.995 162.572 46.6753 161.044 46.6753H159.33ZM159.33 59.9948V68.9611H160.996C163.759 68.9611 165.621 68.6132 166.58 67.9141C167.54 67.2182 168.02 66.2016 168.02 64.8715C168.02 63.3626 167.459 62.1752 166.33 61.3038C165.203 60.4307 163.329 59.9948 160.71 59.9948H159.33Z" fill="#006C43"/>
<path fill-rule="evenodd" clip-rule="evenodd" d="M182.54 75.3121H179.097V49.4346H185.413V64.6334L198.645 49.4346H201.757V75.3121H195.437V60.4226L182.54 75.3121Z" fill="#006C43"/>
<path fill-rule="evenodd" clip-rule="evenodd" d="M231.868 75.3121H225.266L218.799 58.9913L212.215 75.3121H205.636L216.658 49.4346H220.838L231.868 75.3121Z" fill="#006C43"/>
<path fill-rule="evenodd" clip-rule="evenodd" d="M261 75.3121H254.394L247.928 58.9913L241.342 75.3121H234.761L245.785 49.4346H249.965L261 75.3121Z" fill="#006C43"/>
<path fill-rule="evenodd" clip-rule="evenodd" d="M41 74.988V40H46.4942C49.6796 40 52.0107 40.2063 53.485 40.6189C55.5778 41.1732 57.2427 42.2046 58.4788 43.7079C59.7157 45.2166 60.3334 46.9922 60.3334 49.0383C60.3334 50.37 60.0523 51.5785 59.4904 52.6641C58.928 53.7498 58.0131 54.7708 56.7473 55.7223C58.8694 56.7205 60.4212 57.9697 61.403 59.4694C62.3849 60.9662 62.8733 62.7379 62.8733 64.7839C62.8733 66.7506 62.3695 68.541 61.3544 70.1597C60.3387 71.7776 59.0322 72.9856 57.4304 73.7864C55.8285 74.5872 53.618 74.988 50.7955 74.988H41ZM47.6531 46.3514V53.7239H49.108C50.7277 53.7239 51.933 53.3834 52.7203 52.7013C53.5051 52.0193 53.8998 51.0907 53.8998 49.9176C53.8998 48.8239 53.5265 47.955 52.7789 47.3133C52.0308 46.671 50.8945 46.3514 49.3701 46.3514H47.6531ZM47.6531 59.67V68.6362H49.32C52.0824 68.6362 53.9439 68.2882 54.905 67.5893C55.865 66.8934 56.3455 65.8768 56.3455 64.5465C56.3455 63.0379 55.7826 61.8502 54.6548 60.9788C53.5275 60.106 51.6535 59.67 49.0335 59.67H47.6531Z" fill="#006C43"/>
<path fill-rule="evenodd" clip-rule="evenodd" d="M66.0801 49.4346H72.5641V59.1167L81.4932 49.4346H89.4104L77.9019 62.0431L89.5519 75.3121H80.9531L73.2466 66.1705L72.5641 66.9876V75.3121H66.0801V49.4346Z" fill="#006C43"/>
<path d="M42.8926 106.001H45.7086L51.6487 97.0027C52.2207 96.0787 52.9467 94.5826 52.9467 94.5826H52.9907C52.9907 94.5826 52.8367 96.0787 52.8367 97.0027V106.001H55.6527V90.3806H52.8367L46.9406 99.3787C46.3686 100.303 45.6206 101.821 45.6206 101.821H45.5766C45.5766 101.821 45.7306 100.325 45.7306 99.4007V90.3806H42.8926V106.001ZM58.9323 106.001H61.7262V101.469H66.5222V106.001H69.3163V94.7807H66.5222V99.1147H61.7262V94.7807H58.9323V106.001ZM74.9351 106.001H77.7071V97.1567H81.4252V94.7807H71.2391V97.1567H74.9351V106.001ZM82.356 100.391C82.356 103.581 84.688 106.265 88.406 106.265C90.012 106.265 91.772 105.671 92.916 104.659L91.816 102.657C90.914 103.383 89.748 103.889 88.604 103.889C86.91 103.889 85.414 102.877 85.238 100.919H92.96C93.004 100.567 93.048 100.193 93.048 99.8407C93.048 96.8707 91.288 94.5167 88.076 94.5167C84.71 94.5167 82.356 96.9367 82.356 100.391ZM85.304 99.0047C85.568 97.5747 86.58 96.6287 88.01 96.6287C89.264 96.6287 90.232 97.5087 90.254 99.0047H85.304ZM95.37 110.401H98.164V105.649C98.164 105.077 98.098 104.681 98.098 104.681H98.142C98.934 105.693 100.1 106.265 101.376 106.265C104.324 106.265 106.502 103.955 106.502 100.391C106.502 96.9147 104.566 94.5167 101.53 94.5167C100.012 94.5167 98.648 95.1987 97.922 96.4087H97.878C97.878 96.4087 97.922 96.0347 97.922 95.6167V94.7807H95.37V110.401ZM98.076 100.457C98.076 97.9707 99.44 96.9147 100.914 96.9147C102.542 96.9147 103.686 98.3007 103.686 100.435C103.686 102.657 102.41 103.911 100.87 103.911C99.044 103.911 98.076 102.195 98.076 100.457ZM108.884 106.001H111.678V101.469H116.474V106.001H119.268V94.7807H116.474V99.1147H111.678V94.7807H108.884V106.001ZM121.587 100.391C121.587 103.581 123.919 106.265 127.637 106.265C129.243 106.265 131.003 105.671 132.147 104.659L131.047 102.657C130.145 103.383 128.979 103.889 127.835 103.889C126.141 103.889 124.645 102.877 124.469 100.919H132.191C132.235 100.567 132.279 100.193 132.279 99.8407C132.279 96.8707 130.519 94.5167 127.307 94.5167C123.941 94.5167 121.587 96.9367 121.587 100.391ZM124.535 99.0047C124.799 97.5747 125.811 96.6287 127.241 96.6287C128.495 96.6287 129.463 97.5087 129.485 99.0047H124.535ZM137.111 106.001H139.883V97.1567H143.602V94.7807H133.415V97.1567H137.111V106.001ZM145.063 100.941H151.663V98.4987H145.063V100.941ZM154.141 106.001H156.825L157.221 99.9287C157.265 99.1807 157.199 98.0147 157.199 98.0147H157.243C157.243 98.0147 157.617 98.8947 157.925 99.6647L160.125 104.593H162.435L164.635 99.6427C164.987 98.8507 165.295 98.0147 165.295 98.0147H165.339C165.339 98.0147 165.295 99.1807 165.317 99.9287L165.713 106.001H168.397L167.385 94.7807H164.261L161.841 100.567C161.599 101.205 161.291 101.997 161.291 101.997H161.247C161.247 101.997 160.961 101.183 160.697 100.567L158.321 94.7807H155.153L154.141 106.001ZM170.095 102.899C170.095 104.945 171.767 106.265 173.791 106.265C175.309 106.265 176.651 105.429 177.333 104.241H177.377C177.377 104.241 177.311 104.593 177.311 105.055V106.001H179.907V98.9827C179.907 96.1447 178.169 94.5167 175.243 94.5167C173.571 94.5167 171.767 95.1547 170.843 95.9027L171.877 97.9047C172.779 97.2887 173.901 96.8267 175.001 96.8267C176.167 96.8267 177.113 97.3327 177.113 98.8067V98.9607H176.629C174.143 98.9607 170.095 99.5327 170.095 102.899ZM172.867 102.657C172.867 101.073 175.243 100.875 176.651 100.875H177.135V101.183C177.135 102.547 176.123 104.131 174.561 104.131C173.439 104.131 172.867 103.405 172.867 102.657ZM182.748 106.001H185.542V97.1567H190.118V94.7807H182.748V106.001ZM191.021 102.899C191.021 104.945 192.693 106.265 194.717 106.265C196.235 106.265 197.577 105.429 198.259 104.241H198.303C198.303 104.241 198.237 104.593 198.237 105.055V106.001H200.833V98.9827C200.833 96.1447 199.095 94.5167 196.169 94.5167C194.497 94.5167 192.693 95.1547 191.769 95.9027L192.803 97.9047C193.705 97.2887 194.827 96.8267 195.927 96.8267C197.093 96.8267 198.039 97.3327 198.039 98.8067V98.9607H197.555C195.069 98.9607 191.021 99.5327 191.021 102.899ZM193.793 102.657C193.793 101.073 196.169 100.875 197.577 100.875H198.061V101.183C198.061 102.547 197.049 104.131 195.487 104.131C194.365 104.131 193.793 103.405 193.793 102.657ZM202.662 104.615C203.696 105.583 205.302 106.265 206.996 106.265C209.438 106.265 211.418 105.077 211.418 102.745C211.418 101.359 210.538 100.545 209.526 100.171V100.127C210.318 99.7527 211.066 98.9827 211.066 97.5967C211.066 95.6167 209.328 94.5167 207.128 94.5167C205.258 94.5167 203.916 95.0887 202.992 95.7707L203.894 97.5527C204.884 96.8927 205.764 96.6287 206.6 96.6287C207.722 96.6287 208.272 97.1347 208.272 97.9707C208.272 98.9167 207.524 99.2687 206.534 99.2687H205.39V101.205H206.754C208.096 101.205 208.624 101.733 208.624 102.591C208.624 103.537 207.876 104.109 206.688 104.109C205.522 104.109 204.444 103.405 203.85 102.833L202.662 104.615ZM213.75 106.001H216.456L220.614 100.017C220.9 99.5767 221.318 98.9827 221.45 98.6747H221.494C221.472 98.9607 221.428 99.5987 221.428 100.017V106.001H224.09V94.7807H221.384L217.226 100.787C216.94 101.227 216.522 101.843 216.39 102.129H216.346C216.368 101.953 216.412 101.293 216.412 100.787V94.7807H213.75V106.001ZM227.093 106.001H229.887V101.469H234.683V106.001H237.477V94.7807H234.683V99.1147H229.887V94.7807H227.093V106.001Z" fill="#006C43"/>
</svg>
