<svg width="302" height="150" viewBox="0 0 302 150" fill="none" xmlns="http://www.w3.org/2000/svg">
<path d="M62.311 75.1366C62.311 81.3587 59.3919 84.2712 55.721 84.2712C53.5981 84.2712 51.7405 83.1679 50.6791 81.4911C48.9984 83.1679 46.7428 84.227 44.1776 84.227C39.1356 84.227 35.0667 80.1672 35.0667 75.1366C35.0667 70.106 39.1356 66.0463 44.1776 66.0463C49.2196 66.0463 53.2885 70.106 53.2885 75.1366V78.0932C53.2885 79.5936 54.35 80.6526 55.721 80.6526C57.3575 80.6526 58.6843 79.2847 58.6843 75.1366C58.6843 67.1495 52.1828 60.6626 44.1776 60.6626C36.1724 60.6626 29.6267 67.1495 29.6267 75.1366C29.6267 83.1238 36.1282 89.6106 44.1334 89.6106C48.7773 89.6106 51.9617 87.316 51.9617 87.316L54.35 90.0519C54.35 90.0519 50.281 93.185 44.1334 93.185C34.1379 93.185 26 85.0655 26 75.0925C26 65.1196 34.1379 57 44.1334 57C54.1731 57.0441 62.311 65.1637 62.311 75.1366ZM44.1776 80.6526C47.2293 80.6526 49.7061 78.1815 49.7061 75.1366C49.7061 72.0918 47.2293 69.6206 44.1776 69.6206C41.1259 69.6206 38.6491 72.0918 38.6491 75.1366C38.6491 78.1815 41.1259 80.6526 44.1776 80.6526Z" fill="#FC2C38"/>
<path d="M80.4883 74.1657V83.565H77.127V67.3259H80.4883V68.8262C81.594 67.6348 83.2746 66.9287 85.0879 66.9287C87.1666 66.9287 88.9358 67.8113 90.1299 69.444C91.4567 67.8554 93.5354 66.9287 95.7911 66.9287C99.9042 66.9287 102.646 69.9735 102.646 74.2981V83.6091H99.285V74.3422C99.285 71.8711 97.8255 70.1942 95.5699 70.1942C93.3143 70.1942 91.5452 71.9152 91.5452 74.2098V83.6091H88.1839V74.3422C88.1839 71.8711 86.7244 70.1942 84.4688 70.1942C82.2574 70.1501 80.4883 71.8711 80.4883 74.1657Z" fill="#030303"/>
<path d="M119.276 69.0913V67.3262H122.638V83.5653H119.276V81.8002C117.905 83.1681 116.004 84.0066 113.792 84.0066C109.016 84.0066 105.345 80.2998 105.345 75.4899C105.345 70.6358 109.016 66.9731 113.792 66.9731C116.048 66.8849 117.905 67.7233 119.276 69.0913ZM108.883 75.4016C108.883 78.4906 111.094 80.697 114.102 80.697C117.154 80.697 119.321 78.4464 119.321 75.4016C119.321 72.3568 117.154 70.1062 114.102 70.1062C111.094 70.1504 108.883 72.3126 108.883 75.4016Z" fill="#030303"/>
<path d="M130.466 62.3838C130.466 63.5752 129.493 64.546 128.299 64.546C127.105 64.546 126.176 63.5752 126.176 62.3838C126.176 61.1923 127.105 60.2656 128.299 60.2656C129.493 60.2656 130.466 61.1923 130.466 62.3838ZM129.979 83.5652H126.618V67.3261H129.979V83.5652Z" fill="#030303"/>
<path d="M137.498 83.5648H134.137V60.6182H137.498V83.5648Z" fill="#030303"/>
<path d="M143.734 84.0063C142.54 84.0063 141.479 83.0355 141.479 81.7116C141.479 80.3878 142.584 79.417 143.734 79.417C144.928 79.417 145.99 80.3878 145.99 81.7116C145.99 83.0355 144.928 84.0063 143.734 84.0063Z" fill="#030303"/>
<path d="M153.199 75.0924V83.5209H149.838V67.2817H153.199V69.4881C154.393 67.9437 155.986 67.2817 158.285 67.2817H159.612V70.4148H158.285C155.278 70.4148 153.199 72.3123 153.199 75.0924Z" fill="#030303"/>
<path d="M173.499 76.5486V67.3259H176.86V83.565H173.499V81.9323C172.305 83.212 170.491 83.9622 168.501 83.9622C164.432 83.9622 161.734 80.9173 161.734 76.5045V67.2817H165.096V76.4162C165.096 79.0639 166.688 80.6967 169.076 80.6967C171.553 80.6967 173.499 78.8433 173.499 76.5486Z" fill="#030303"/>
<path d="M201.628 69.0027V67.3258H204.99V81.4027C204.99 86.6098 201.628 89.8312 196.321 89.8312C193.712 89.8312 191.102 89.0369 189.333 87.8013L190.881 84.9771C192.296 85.9479 194.375 86.5657 196.321 86.5657C199.638 86.5657 201.584 84.8006 201.584 81.7557V81.4468C200.213 82.8148 198.311 83.565 196.1 83.565C191.323 83.565 187.652 79.9906 187.652 75.2689C187.652 70.5472 191.323 66.9728 196.1 66.9728C198.355 66.8846 200.257 67.6347 201.628 69.0027ZM191.191 75.1806C191.191 78.1813 193.402 80.2554 196.409 80.2554C199.461 80.2554 201.628 78.1372 201.628 75.1806C201.628 72.2241 199.461 70.1059 196.409 70.1059C193.402 70.15 191.191 72.2241 191.191 75.1806Z" fill="#030303"/>
<path d="M212.154 75.0924V83.5209H208.793V67.2817H212.154V69.4881C213.348 67.9437 214.941 67.2817 217.24 67.2817H218.567V70.4148H217.24C214.233 70.4148 212.154 72.3123 212.154 75.0924Z" fill="#030303"/>
<path d="M227.635 83.9622C222.77 83.9622 218.922 80.2113 218.922 75.4454C218.922 70.6796 222.77 66.9287 227.635 66.9287C232.5 66.9287 236.348 70.6796 236.348 75.4454C236.348 80.2113 232.5 83.9622 227.635 83.9622ZM227.635 80.6967C230.642 80.6967 232.854 78.4461 232.854 75.4013C232.854 72.3565 230.642 70.1059 227.635 70.1059C224.627 70.1059 222.416 72.3565 222.416 75.4013C222.416 78.4461 224.627 80.6967 227.635 80.6967Z" fill="#030303"/>
<path d="M250.854 76.5486V67.3259H254.216V83.565H250.854V81.9323C249.66 83.212 247.847 83.9622 245.857 83.9622C241.788 83.9622 239.09 80.9173 239.09 76.5045V67.2817H242.451V76.4162C242.451 79.0639 244.043 80.6967 246.432 80.6967C248.908 80.6967 250.854 78.8433 250.854 76.5486Z" fill="#030303"/>
<path d="M275.268 75.4014C275.268 80.2554 271.597 83.9181 266.82 83.9181C264.565 83.9181 262.707 83.0796 261.336 81.7117V89.2134H257.975V67.2377H261.336V69.0028C262.707 67.6348 264.609 66.7964 266.82 66.7964C271.597 66.8846 275.268 70.5914 275.268 75.4014ZM261.336 75.4014C261.336 78.4462 263.503 80.6967 266.555 80.6967C269.562 80.6967 271.774 78.4903 271.774 75.4014C271.774 72.3124 269.562 70.106 266.555 70.106C263.503 70.1501 261.336 72.3565 261.336 75.4014Z" fill="#030303"/>
</svg>
