<svg width="302" height="150" viewBox="0 0 302 150" fill="none" xmlns="http://www.w3.org/2000/svg">
<mask id="mask0" mask-type="alpha" maskUnits="userSpaceOnUse" x="55" y="50" width="192" height="50">
<path d="M96.3744 56.1321C91.9695 52.3585 86.3061 50 80.0134 50C66.1695 50 55 61.1635 55 75C55 88.8365 66.1695 100 80.0134 100C86.3061 100 91.9695 97.6415 96.3744 93.8679V98.8994H105.341V50.9434H96.3744V56.1321ZM80.1707 91.6667C71.4935 91.6667 64.3659 84.4188 64.3659 75.5952C64.3659 66.7717 71.4935 59.5238 80.1707 59.5238C88.8479 59.5238 95.9756 66.7717 95.9756 75.5952C95.9756 84.5763 88.8479 91.6667 80.1707 91.6667ZM133.673 91.0377C138.512 91.0377 142.883 88.8365 145.693 85.3774L151 92.7673C146.629 97.327 140.385 100 133.673 100C119.937 100 108.854 88.8365 108.854 75C108.854 61.1635 119.937 50 133.673 50C140.385 50 146.473 52.8302 151 57.2327L145.693 64.6226C142.883 61.1635 138.512 58.9623 133.673 58.9623C124.776 58.9623 117.751 66.195 117.751 75C117.751 83.9623 124.932 91.0377 133.673 91.0377ZM238.033 50.9434V56.1321C233.628 52.3585 227.965 50 221.672 50C207.828 50 196.659 61.1635 196.659 75C196.659 88.8365 207.828 100 221.672 100C227.965 100 233.628 97.6415 238.033 93.8679V98.8994H247V50.9434H238.033ZM221.829 91.6667C213.152 91.6667 206.024 84.4188 206.024 75.5952C206.024 66.7717 213.152 59.5238 221.829 59.5238C230.506 59.5238 237.634 66.7717 237.634 75.5952C237.634 84.5763 230.506 91.6667 221.829 91.6667ZM184.212 70.5504V51.1905H193.146V98.8095H184.212V79.4496H164.618V98.8095H155.683V51.1905H164.618V70.5504H184.212Z" fill="black"/>
</mask>
<g mask="url(#mask0)">
<path d="M96.3744 56.1321C91.9695 52.3585 86.3061 50 80.0134 50C66.1695 50 55 61.1635 55 75C55 88.8365 66.1695 100 80.0134 100C86.3061 100 91.9695 97.6415 96.3744 93.8679V98.8994H105.341V50.9434H96.3744V56.1321ZM80.1707 91.6667C71.4935 91.6667 64.3659 84.4188 64.3659 75.5952C64.3659 66.7717 71.4935 59.5238 80.1707 59.5238C88.8479 59.5238 95.9756 66.7717 95.9756 75.5952C95.9756 84.5763 88.8479 91.6667 80.1707 91.6667ZM133.673 91.0377C138.512 91.0377 142.883 88.8365 145.693 85.3774L151 92.7673C146.629 97.327 140.385 100 133.673 100C119.937 100 108.854 88.8365 108.854 75C108.854 61.1635 119.937 50 133.673 50C140.385 50 146.473 52.8302 151 57.2327L145.693 64.6226C142.883 61.1635 138.512 58.9623 133.673 58.9623C124.776 58.9623 117.751 66.195 117.751 75C117.751 83.9623 124.932 91.0377 133.673 91.0377ZM238.033 50.9434V56.1321C233.628 52.3585 227.965 50 221.672 50C207.828 50 196.659 61.1635 196.659 75C196.659 88.8365 207.828 100 221.672 100C227.965 100 233.628 97.6415 238.033 93.8679V98.8994H247V50.9434H238.033ZM221.829 91.6667C213.152 91.6667 206.024 84.4188 206.024 75.5952C206.024 66.7717 213.152 59.5238 221.829 59.5238C230.506 59.5238 237.634 66.7717 237.634 75.5952C237.634 84.5763 230.506 91.6667 221.829 91.6667ZM184.212 70.5504V51.1905H193.146V98.8095H184.212V79.4496H164.618V98.8095H155.683V51.1905H164.618V70.5504H184.212Z" fill="black"/>
</g>
</svg>
