<svg width="302" height="150" viewBox="0 0 302 150" fill="none" xmlns="http://www.w3.org/2000/svg">
<path d="M95.8984 86.9982V53.2334H115.917V57.4666H100.044V67.848H114.299V72.0812H100.044V82.6642H117.029V86.8974H95.8984V86.9982Z" fill="#E43225"/>
<path d="M138.059 86.9977L131.184 78.0274L124.309 86.9977H119.456L128.858 75.0037L118.95 62.6064H124.41L131.184 71.8792L138.059 62.6064H143.417L134.015 75.0037L142.912 86.9977H138.059Z" fill="#E43225"/>
<path d="M149.584 83.3696V100H145.438V75.1047C145.438 68.7549 150.291 62.002 157.874 62.002C165.558 62.002 171.321 66.8399 171.321 74.8023C171.321 82.5632 165.457 87.9051 158.784 87.9051C155.549 87.9051 151.201 86.4941 149.584 83.3696V83.3696ZM166.973 74.8023C166.973 69.3597 163.435 66.1344 157.166 66.4367C154.133 66.5375 149.483 68.7549 149.887 76.5158C149.988 79.0355 152.617 83.7727 158.38 83.7727C163.334 83.7727 166.973 80.9506 166.973 74.8023V74.8023Z" fill="#E43225"/>
<path d="M174.86 86.9975V62.6062H179.006V65.2268C181.028 62.9086 184.162 62.1023 187.498 62.1023V66.5371C186.993 66.4363 182.039 65.8315 179.006 72.2821V87.0983H174.86V86.9975Z" fill="#E43225"/>
<path d="M188.609 74.8023C188.609 67.747 193.665 62.002 200.641 62.002C209.335 62.002 212.571 67.747 212.571 75.1047V77.1205H193.159C193.462 81.7569 197.608 84.1759 201.449 84.0751C204.28 83.9743 206.201 83.168 208.223 81.1522L210.953 83.9743C208.426 86.3932 205.19 88.0059 201.247 88.0059C193.867 87.9051 188.609 82.4624 188.609 74.8023V74.8023ZM200.337 66.1344C196.394 66.1344 193.361 69.5612 193.159 73.2905H208.223C208.223 69.662 205.595 66.1344 200.337 66.1344V66.1344Z" fill="#E43225"/>
<path d="M214.694 83.5715L217.727 80.8502C217.626 80.8502 219.244 82.4628 219.446 82.5636C220.154 83.1683 220.862 83.5715 221.772 83.7731C224.4 84.4786 229.152 84.277 229.556 80.6486C229.759 78.6328 228.242 77.5241 226.523 76.8185C224.299 76.0122 221.873 75.7099 219.648 74.7019C217.121 73.5932 215.503 71.6782 215.503 68.8561C215.503 61.4984 226.018 60.2889 230.77 63.7158C230.972 63.9173 233.297 66.034 233.196 66.034L230.163 68.4529C228.647 66.6387 227.231 65.7316 223.996 65.7316C222.378 65.7316 220.154 66.4371 219.749 68.1506C219.143 70.5695 221.873 71.4766 223.692 71.9806C226.119 72.5853 228.748 72.9885 230.871 74.2988C233.803 76.113 234.511 80.0438 233.398 83.0675C232.185 86.3936 228.545 87.7039 225.31 87.8047C221.468 88.0063 218.132 86.7968 215.402 84.0755C215.2 84.0755 214.694 83.5715 214.694 83.5715V83.5715Z" fill="#E43225"/>
<path d="M236.027 83.5715L239.06 80.8502C238.959 80.8502 240.577 82.4628 240.779 82.5636C241.487 83.1683 242.195 83.5715 243.105 83.7731C245.733 84.4786 250.485 84.277 250.889 80.6486C251.092 78.6328 249.575 77.5241 247.856 76.8185C245.632 76.0122 243.206 75.7099 240.981 74.7019C238.454 73.5932 236.836 71.6782 236.836 68.8561C236.836 61.4984 247.351 60.2889 252.103 63.7158C252.305 63.9173 254.63 66.034 254.529 66.034L251.496 68.4529C249.98 66.6387 248.564 65.7316 245.329 65.7316C243.711 65.7316 241.487 66.4371 241.082 68.1506C240.476 70.5695 243.206 71.4766 245.026 71.9806C247.452 72.5853 250.081 72.9885 252.204 74.2988C255.136 76.113 255.844 80.0438 254.731 83.0675C253.518 86.3936 249.878 87.7039 246.643 87.8047C242.801 88.0063 239.465 86.7968 236.735 84.0755C236.533 84.0755 236.027 83.5715 236.027 83.5715V83.5715Z" fill="#E43225"/>
<path d="M255.742 62.6074V59.9869H254.832V59.4829H257.258V59.9869H256.349V62.6074H255.742Z" fill="#E43225"/>
<path d="M260.291 62.6074V60.1884L259.381 62.6074H259.179L258.269 60.1884V62.6074H257.764V59.4829H258.572L259.381 61.5995L260.19 59.4829H260.999V62.6074H260.291Z" fill="#E43225"/>
<path d="M67.7923 86.9982L64.7592 78.935H48.3805L45.3474 86.9982H41L54.1434 53.2334H58.8952L71.9375 86.9982H67.7923ZM56.3676 58.0713L50.2004 74.8026H63.0404L56.3676 58.0713Z" fill="#F7971D"/>
<path d="M74.667 86.9982V53.2334H78.9133V86.9982H74.667Z" fill="#F7971D"/>
<path d="M85.2832 86.9979V63.1106H89.5295V86.9979H85.2832Z" fill="#F7971D"/>
<path d="M93.5739 55.3498C93.5739 55.249 93.5739 55.249 93.5739 55.1482C93.5739 55.0474 93.5739 55.0474 93.5739 54.9466C90.3386 54.8458 87.7099 52.2253 87.6088 49C87.5077 49 87.4066 49 87.3055 49C87.2044 49 87.1033 49 87.0022 49C86.9011 52.2253 84.2724 54.8458 81.0371 54.9466C81.0371 55.0474 81.0371 55.0474 81.0371 55.1482C81.0371 55.249 81.0371 55.249 81.0371 55.3498C84.2724 55.4506 86.9011 58.0711 87.0022 61.2964C87.1033 61.2964 87.2044 61.2964 87.3055 61.2964C87.4066 61.2964 87.5077 61.2964 87.6088 61.2964C87.7099 58.0711 90.3386 55.4506 93.5739 55.3498Z" fill="#F7971D"/>
</svg>
