<svg width="25" height="24" viewBox="0 0 25 24" fill="none" xmlns="http://www.w3.org/2000/svg">
<path d="M1.5 12C1.5 18.0867 6.41333 23 12.5 23C18.5867 23 23.5 18.0867 23.5 12C23.5 5.91333 18.5867 1 12.5 1C6.41333 1 1.5 5.91333 1.5 12ZM5.31333 12C5.31333 8.18667 8.24667 5.10667 11.9867 4.81333V8.62667C10.3733 8.84667 9.12667 10.24 9.12667 11.9267C9.12667 13.76 10.5933 15.3 12.5 15.3C14.4067 15.3 15.8733 13.8333 15.8733 11.9267C15.8733 10.24 14.6267 8.84667 13.0133 8.62667V4.81333C16.7533 5.03333 19.6867 8.18667 19.6867 12C19.6867 15.96 16.46 19.1867 12.5 19.1867C8.54 19.1867 5.31333 15.96 5.31333 12ZM11.0333 2.90667C11.0333 2.1 11.6933 1.44 12.5 1.44C13.3067 1.44 13.9667 2.1 13.9667 2.90667C13.9667 3.71333 13.3067 4.37333 12.5 4.37333C11.6933 4.37333 11.0333 3.71333 11.0333 2.90667Z" fill="#B74746"/>
</svg>
