<svg width="25" height="24" viewBox="0 0 25 24" fill="none" xmlns="http://www.w3.org/2000/svg">
<path d="M6.37567 14.2951L5.60988 17.1539L2.81094 17.2131C1.97446 15.6616 1.5 13.8865 1.5 12.0002C1.5 10.1761 1.94361 8.45601 2.72994 6.94141H2.73054L5.22239 7.39825L6.31397 9.87515C6.0855 10.5412 5.96098 11.2562 5.96098 12.0002C5.96107 12.8077 6.10733 13.5813 6.37567 14.2951Z" fill="#FBBB00"/>
<path d="M23.3082 9.94531C23.4345 10.6107 23.5004 11.2979 23.5004 12.0003C23.5004 12.7878 23.4176 13.556 23.2598 14.297C22.7244 16.8185 21.3252 19.0203 19.3869 20.5785L19.3863 20.5779L16.2477 20.4177L15.8035 17.6447C17.0896 16.8904 18.0947 15.7101 18.6242 14.297H12.7422V9.94531H18.71H23.3082Z" fill="#518EF8"/>
<path d="M19.3855 20.5776L19.3861 20.5782C17.501 22.0934 15.1064 23 12.4996 23C8.31056 23 4.66848 20.6586 2.81055 17.2129L6.37528 14.2949C7.30423 16.7741 9.69583 18.539 12.4996 18.539C13.7048 18.539 14.8338 18.2132 15.8026 17.6445L19.3855 20.5776Z" fill="#28B446"/>
<path d="M19.5218 3.53241L15.9583 6.44982C14.9556 5.82308 13.7704 5.46102 12.5005 5.46102C9.63328 5.46102 7.19695 7.30684 6.31454 9.87495L2.73107 6.94121H2.73047C4.5612 3.41154 8.24921 1 12.5005 1C15.1696 1 17.6168 1.95073 19.5218 3.53241Z" fill="#F14336"/>
</svg>
