<svg width="80" height="80" viewBox="0 0 80 80" fill="none" xmlns="http://www.w3.org/2000/svg">
<path fill-rule="evenodd" clip-rule="evenodd" d="M19.4849 4.21045H55.4311C61.5171 4.21045 66.4951 9.18846 66.4951 15.2745V60.7809C66.4951 66.8669 61.5171 71.8449 55.4311 71.8449H19.4849C13.3989 71.8449 8.4209 66.8669 8.4209 60.7809V15.2745C8.4209 9.18846 13.3989 4.21045 19.4849 4.21045V4.21045ZM20.3713 41.874H35.0837C35.8435 41.874 36.4687 42.4992 36.4687 43.259C36.4687 44.0187 35.8435 44.6439 35.0837 44.6439H20.3713C19.6115 44.6439 18.9863 44.0187 18.9863 43.259C18.9863 42.4992 19.6115 41.874 20.3713 41.874ZM20.3713 19.6668H30.9209C31.6806 19.6668 32.3059 20.292 32.3059 21.0518C32.3059 21.8116 31.6806 22.4368 30.9209 22.4368H20.3713C19.6115 22.4368 18.9863 21.8116 18.9863 21.0518C18.9863 20.292 19.6115 19.6668 20.3713 19.6668ZM36.9673 19.6668H54.6871C55.4469 19.6668 56.0721 20.292 56.0721 21.0518C56.0721 21.8116 55.4469 22.4368 54.6871 22.4368H36.9673C36.2075 22.4368 35.5823 21.8116 35.5823 21.0518C35.5823 20.292 36.2075 19.6668 36.9673 19.6668ZM20.3713 30.7704H26.3386C27.0983 30.7704 27.7236 31.3956 27.7236 32.1554C27.7236 32.9151 27.0983 33.5404 26.3386 33.5404H20.3713C19.6115 33.5404 18.9863 32.9151 18.9863 32.1554C18.9863 31.3956 19.6115 30.7704 20.3713 30.7704ZM32.939 30.7704H54.6792C55.439 30.7704 56.0642 31.3956 56.0642 32.1554C56.0642 32.9151 55.439 33.5404 54.6792 33.5404H32.939C32.1792 33.5404 31.554 32.9151 31.554 32.1554C31.554 31.3956 32.1792 30.7704 32.939 30.7704ZM19.4849 6.98832C14.9343 6.98832 11.1988 10.7238 11.1988 15.2745V60.7809C11.1988 65.3316 14.9343 69.0671 19.4849 69.0671H55.4311C59.9817 69.0671 63.7172 65.3316 63.7172 60.7809V15.2745C63.7172 10.7238 59.9817 6.98832 55.4311 6.98832H19.4849Z" fill="#65A217"/>
<path d="M52.899 72.1694C60.5655 72.1694 66.7805 65.9545 66.7805 58.2879C66.7805 50.6214 60.5655 44.4065 52.899 44.4065C45.2325 44.4065 39.0176 50.6214 39.0176 58.2879C39.0176 65.9545 45.2325 72.1694 52.899 72.1694Z" fill="url(#paint0_linear)"/>
<path fill-rule="evenodd" clip-rule="evenodd" d="M45.2138 56.2938C45.752 55.7556 46.6384 55.7556 47.1765 56.2938L51.3473 60.4645L58.6363 53.1756C59.1744 52.6374 60.0608 52.6374 60.599 53.1756C61.1371 53.7137 61.1371 54.6001 60.599 55.1383L52.3287 63.4086L52.3049 63.4323L52.2812 63.4561L52.2574 63.4798L52.2337 63.5036L52.2099 63.5273L52.1783 63.5511L52.1466 63.5748L52.115 63.5906L52.0833 63.6064L52.0517 63.6223L52.02 63.6381L51.9884 63.6539L51.9567 63.6698L51.925 63.6856L51.8934 63.7014L51.8617 63.7172L51.8301 63.7331L51.7984 63.741L51.7668 63.7489L51.7351 63.7568L51.7034 63.7647L51.6718 63.7726L51.6401 63.7806L51.6085 63.7885L51.5768 63.7964L51.5452 63.8043L51.5135 63.8122H51.4818H51.4502H51.4185H51.3869H51.3552H51.3236H51.2919H51.2602H51.2286H51.1969L51.1653 63.8043L51.1336 63.7964L51.102 63.7885L51.0703 63.7806L51.0386 63.7726L51.007 63.7647L50.9753 63.7568L50.9437 63.7489L50.912 63.741L50.8804 63.7331L50.8487 63.7172L50.8171 63.7014L50.7854 63.6856L50.7537 63.6698L50.7221 63.6539L50.6904 63.6381L50.6588 63.6223L50.6271 63.6064L50.5955 63.5906L50.5638 63.5748L50.5321 63.5511L50.5005 63.5273L50.4767 63.5036L50.453 63.4798L50.4293 63.4561L50.4055 63.4323L50.3818 63.4086L45.2297 58.2565C44.6915 57.7183 44.6915 56.8319 45.2297 56.2938H45.2138ZM52.9064 41.6367C62.1027 41.6367 69.5657 49.0919 69.5657 58.296C69.5657 67.4923 62.1106 74.9554 52.9064 74.9554C43.7101 74.9554 36.2471 67.5002 36.2471 58.296C36.2471 49.0998 43.7022 41.6367 52.9064 41.6367ZM52.9064 44.4146C60.5752 44.4146 66.7878 50.6272 66.7878 58.296C66.7878 65.9649 60.5752 72.1775 52.9064 72.1775C45.2376 72.1775 39.0249 65.9649 39.0249 58.296C39.0249 50.6272 45.2376 44.4146 52.9064 44.4146Z" fill="#65A217"/>
<defs>
<linearGradient id="paint0_linear" x1="39.0176" y1="44.4065" x2="70.3754" y2="49.3457" gradientUnits="userSpaceOnUse">
<stop stop-color="#E3EEFF"/>
<stop offset="0.526042" stop-color="#E4F6E4"/>
<stop offset="1" stop-color="#FFEEE4"/>
</linearGradient>
</defs>
</svg>
