<svg width="64" height="64" viewBox="0 0 64 64" fill="none" xmlns="http://www.w3.org/2000/svg">
<path fill-rule="evenodd" clip-rule="evenodd" d="M11.5495 13.2318H14.7907C14.8625 7.79582 19.3314 3.36844 24.7863 3.36844H31.0383C36.4932 3.36844 40.9621 7.79582 41.0339 13.2318H44.2751C48.7743 13.2318 52.4575 16.915 52.4575 21.4142V50.0486C52.4575 54.5477 48.7743 58.2309 44.2751 58.2309H11.5495C7.05037 58.2309 3.36719 54.5477 3.36719 50.0486V21.4142C3.36719 16.915 7.05037 13.2318 11.5495 13.2318ZM11.5495 15.2755H44.2751C47.6485 15.2755 50.41 18.037 50.41 21.4104V50.0448C50.41 53.4182 47.6485 56.1797 44.2751 56.1797H11.5495C8.17611 56.1797 5.41466 53.4182 5.41466 50.0448V21.4104C5.41466 18.037 8.17611 15.2755 11.5495 15.2755ZM16.8344 13.2318H38.9864C38.9147 8.91777 35.3637 5.41214 31.0345 5.41214H24.7826C20.4534 5.41214 16.9062 8.91777 16.8307 13.2318H16.8344Z" fill="#001970"/>
<path fill-rule="evenodd" clip-rule="evenodd" d="M35.9945 21.0901L26.7852 26.4071L28.5984 29.5478L37.8077 24.2307L35.9945 21.0901ZM42.8658 58.3103C51.7327 58.3103 58.9207 51.1223 58.9207 42.2554C58.9207 33.3885 51.7327 26.2005 42.8658 26.2005C33.9989 26.2005 26.8109 33.3885 26.8109 42.2554C26.8109 51.1223 33.9989 58.3103 42.8658 58.3103ZM58.9441 26.4071L49.7348 21.0901L47.9215 24.2307L57.1309 29.5478L58.9441 26.4071Z" fill="url(#paint0_linear)"/>
<path fill-rule="evenodd" clip-rule="evenodd" d="M42.781 33.8577C43.3439 33.8577 43.8047 34.3186 43.8047 34.8814V41.3714H52.6217C53.1846 41.3714 53.6455 41.8323 53.6455 42.3951C53.6455 42.958 53.1846 43.4189 52.6217 43.4189H42.781H42.7546H42.7281H42.7017L42.6752 43.4151L42.6488 43.4113L42.6223 43.4075L42.5959 43.4038L42.5695 43.4L42.543 43.3962L42.5203 43.3887L42.4977 43.3811L42.475 43.3735L42.4523 43.366L42.4297 43.3584L42.407 43.3509L42.3843 43.3433L42.3617 43.332L42.339 43.3207L42.3163 43.3093L42.2937 43.298L42.271 43.2867L42.2484 43.2753L42.2257 43.264L42.2068 43.2489L42.1879 43.2338L42.169 43.2187L42.1501 43.2036L42.1312 43.1884L42.1124 43.1733L42.0935 43.1582L42.0746 43.1431L42.0557 43.1242L42.0368 43.1053L42.0217 43.0864L42.0066 43.0676L41.9915 43.0487L41.9764 43.0298L41.9613 43.0109L41.9461 42.992L41.931 42.9731L41.9159 42.9542L41.9046 42.9316L41.8933 42.9089L41.8819 42.8862L41.8706 42.8636L41.8593 42.8409L41.8479 42.8182L41.8366 42.7956L41.8253 42.7729L41.8177 42.7502L41.8101 42.7276L41.8026 42.7049L41.795 42.6822L41.7875 42.6596L41.7799 42.6369L41.7761 42.6105L41.7724 42.584L41.7686 42.5576L41.7648 42.5311L41.761 42.5047L41.7573 42.4783V42.4518V42.4254V42.3989V34.8852C41.7573 34.3224 42.2181 33.8615 42.781 33.8615V33.8577ZM42.8679 24.153C44.4092 24.153 45.9013 24.3456 47.3293 24.7083C46.9099 23.8281 46.9175 22.759 47.4388 21.8562C48.2812 20.3942 50.17 19.888 51.6282 20.7342L58.3108 24.595C59.7728 25.4374 60.279 27.3262 59.4328 28.7844C58.8095 29.861 57.6195 30.4201 56.4522 30.2992C59.2628 33.4875 60.9665 37.6731 60.9665 42.2591C60.9665 52.2547 52.8635 60.3615 42.8641 60.3615C32.8685 60.3615 24.7617 52.2585 24.7617 42.2591C24.7617 37.6769 26.4654 33.4913 29.276 30.2992C28.1087 30.4201 26.9187 29.861 26.2954 28.7844C25.453 27.3224 25.9554 25.4374 27.4174 24.595L34.1 20.7342C35.562 19.8918 37.447 20.3942 38.2894 21.8562C38.8107 22.759 38.8183 23.8281 38.399 24.7083C39.8269 24.3456 41.3191 24.153 42.8603 24.153H42.8679ZM42.8679 26.1967C51.734 26.1967 58.9228 33.3855 58.9228 42.2516C58.9228 51.1177 51.734 58.3065 42.8679 58.3065C34.0018 58.3065 26.813 51.1177 26.813 42.2516C26.813 33.3855 34.0018 26.1967 42.8679 26.1967ZM57.2909 26.3591L50.6082 22.4984C50.1209 22.2188 49.4938 22.3851 49.2105 22.8724C48.931 23.3597 49.0972 23.9868 49.5845 24.2701L56.2671 28.127C56.7544 28.4066 57.3815 28.2404 57.6648 27.7531C57.9444 27.2657 57.7782 26.6387 57.2909 26.3553V26.3591ZM28.4487 26.3591L35.1313 22.4984C35.6186 22.2188 36.2457 22.3851 36.529 22.8724C36.8086 23.3597 36.6424 23.9868 36.155 24.2701L29.4724 28.127C28.9851 28.4066 28.358 28.2404 28.0747 27.7531C27.7952 27.2657 27.9614 26.6387 28.4487 26.3553V26.3591Z" fill="#001970"/>
<defs>
<linearGradient id="paint0_linear" x1="26.7852" y1="21.0901" x2="63.3326" y2="26.0639" gradientUnits="userSpaceOnUse">
<stop stop-color="#E3EEFF"/>
<stop offset="0.526042" stop-color="#E4F6E4"/>
<stop offset="1" stop-color="#FFEEE4"/>
</linearGradient>
</defs>
</svg>
