<svg width="80" height="80" viewBox="0 0 80 80" fill="none" xmlns="http://www.w3.org/2000/svg">
<path fill-rule="evenodd" clip-rule="evenodd" d="M41.9306 17.4523C57.8741 18.1694 70.5821 31.3278 70.5821 47.4463C70.5821 64.0318 57.1403 77.4737 40.5547 77.4737C23.9692 77.4737 10.5273 64.0318 10.5273 47.4463C10.5273 31.3194 23.2354 18.1694 39.1789 17.4523V12.4658H35.3931C33.125 12.4658 31.2655 10.6063 31.2655 8.33818C31.2655 6.07007 33.125 4.21056 35.3931 4.21056H45.7664C48.0345 4.21056 49.894 6.07007 49.894 8.33818C49.894 10.6063 48.0345 12.4658 45.7664 12.4658H41.9306V17.4523ZM35.3931 6.9623H45.7664C46.5252 6.9623 47.1422 7.57936 47.1422 8.33818C47.1422 9.09699 46.5252 9.71405 45.7664 9.71405H35.3931C34.6343 9.71405 34.0173 9.09699 34.0173 8.33818C34.0173 7.57936 34.6343 6.9623 35.3931 6.9623ZM40.5547 70.6777C41.3135 70.6777 41.9306 71.2948 41.9306 72.0536V74.6886C55.9061 73.9965 67.1049 62.7894 67.797 48.8222H65.162C64.4032 48.8222 63.7861 48.2051 63.7861 47.4463C63.7861 46.6875 64.4032 46.0704 65.162 46.0704H67.797C67.1049 32.0949 55.8978 20.8961 41.9306 20.204V22.839C41.9306 23.5979 41.3135 24.2149 40.5547 24.2149C39.7959 24.2149 39.1789 23.5979 39.1789 22.839V20.204C25.2033 20.8961 14.0046 32.1033 13.3124 46.0704H15.9474C16.7063 46.0704 17.3233 46.6875 17.3233 47.4463C17.3233 48.2051 16.7063 48.8222 15.9474 48.8222H13.3124C14.0046 62.7977 25.2117 73.9965 39.1789 74.6886V72.0536C39.1789 71.2948 39.7959 70.6777 40.5547 70.6777Z" fill="#000A68"/>
<path fill-rule="evenodd" clip-rule="evenodd" d="M50.6454 29.9679C51.3042 30.3432 51.5293 31.1937 51.1457 31.8441L45.1086 42.3007C46.5261 43.5599 47.4267 45.3944 47.4267 47.4457C47.4267 51.2397 44.3497 54.3167 40.5557 54.3167C36.7616 54.3167 33.6846 51.2397 33.6846 47.4457C33.6846 46.6869 33.8097 45.9531 34.0349 45.2693L26.6719 41.0166C26.0131 40.6414 25.788 39.7908 26.1715 39.1404C26.5468 38.4817 27.3973 38.2565 28.0477 38.6401L35.4107 42.8928C36.6699 41.4752 38.5044 40.5746 40.5557 40.5746C41.3145 40.5746 42.0483 40.6997 42.732 40.9249L48.7692 30.4682C49.1445 29.8095 49.995 29.5843 50.6454 29.9679ZM40.5557 43.3264C42.8321 43.3264 44.6833 45.1692 44.6833 47.454C44.6833 49.7305 42.8405 51.5816 40.5557 51.5816C38.2792 51.5816 36.4281 49.7388 36.4281 47.454C36.4281 45.1776 38.2709 43.3264 40.5557 43.3264Z" fill="#000A68"/>
<path fill-rule="evenodd" clip-rule="evenodd" d="M40.5563 43.2181C42.8995 43.2181 44.7924 45.1109 44.7924 47.4541C44.7924 49.7973 42.8995 51.6901 40.5563 51.6901C38.2132 51.6901 36.3203 49.7973 36.3203 47.4541C36.3203 45.1109 38.2132 43.2181 40.5563 43.2181Z" fill="url(#paint0_linear)"/>
<defs>
<linearGradient id="paint0_linear" x1="36.3203" y1="43.2181" x2="45.8894" y2="44.7253" gradientUnits="userSpaceOnUse">
<stop stop-color="#E3EEFF"/>
<stop offset="0.526042" stop-color="#E4F6E4"/>
<stop offset="1" stop-color="#FFEEE4"/>
</linearGradient>
</defs>
</svg>
